  0
SECTION
  2
HEADER
  9
$ACADVER
  1
AC1014
  9
$ACADMAINTVER
 70
     9
  9
$DWGCODEPAGE
  3
UNDEFINED
  9
$INSBASE
 10
0.0
 20
0.0
 30
0.0
  9
$EXTMIN
 10
1.000000000000000E+20
 20
1.000000000000000E+20
 30
1.000000000000000E+20
  9
$EXTMAX
 10
-1.000000000000000E+20
 20
-1.000000000000000E+20
 30
-1.000000000000000E+20
  9
$LIMMIN
 10
0.0
 20
0.0
  9
$LIMMAX
 10
12.0
 20
9.0
  9
$ORTHOMODE
 70
     0
  9
$REGENMODE
 70
     1
  9
$FILLMODE
 70
     1
  9
$QTEXTMODE
 70
     0
  9
$MIRRTEXT
 70
     1
  9
$DRAGMODE
 70
     2
  9
$LTSCALE
 40
1.0
  9
$OSMODE
 70
    37
  9
$ATTMODE
 70
     1
  9
$TEXTSIZE
 40
0.2
  9
$TRACEWID
 40
0.05
  9
$TEXTSTYLE
  7
STANDARD
  9
$CLAYER
  8
0
  9
$CELTYPE
  6
BYLAYER
  9
$CECOLOR
 62
   256
  9
$CELTSCALE
 40
1.0
  9
$DELOBJ
 70
     1
  9
$DISPSILH
 70
     0
  9
$DIMSCALE
 40
1.0
  9
$DIMASZ
 40
0.18
  9
$DIMEXO
 40
0.0625
  9
$DIMDLI
 40
0.38
  9
$DIMRND
 40
0.0
  9
$DIMDLE
 40
0.0
  9
$DIMEXE
 40
0.18
  9
$DIMTP
 40
0.0
  9
$DIMTM
 40
0.0
  9
$DIMTXT
 40
0.18
  9
$DIMCEN
 40
0.09
  9
$DIMTSZ
 40
0.0
  9
$DIMTOL
 70
     0
  9
$DIMLIM
 70
     0
  9
$DIMTIH
 70
     1
  9
$DIMTOH
 70
     1
  9
$DIMSE1
 70
     0
  9
$DIMSE2
 70
     0
  9
$DIMTAD
 70
     0
  9
$DIMZIN
 70
     0
  9
$DIMBLK
  1

  9
$DIMASO
 70
     1
  9
$DIMSHO
 70
     1
  9
$DIMPOST
  1

  9
$DIMAPOST
  1

  9
$DIMALT
 70
     0
  9
$DIMALTD
 70
     2
  9
$DIMALTF
 40
25.4
  9
$DIMLFAC
 40
1.0
  9
$DIMTOFL
 70
     0
  9
$DIMTVP
 40
0.0
  9
$DIMTIX
 70
     0
  9
$DIMSOXD
 70
     0
  9
$DIMSAH
 70
     0
  9
$DIMBLK1
  1

  9
$DIMBLK2
  1

  9
$DIMSTYLE
  2
STANDARD
  9
$DIMCLRD
 70
     0
  9
$DIMCLRE
 70
     0
  9
$DIMCLRT
 70
     0
  9
$DIMTFAC
 40
1.0
  9
$DIMGAP
 40
0.09
  9
$DIMJUST
 70
     0
  9
$DIMSD1
 70
     0
  9
$DIMSD2
 70
     0
  9
$DIMTOLJ
 70
     1
  9
$DIMTZIN
 70
     0
  9
$DIMALTZ
 70
     0
  9
$DIMALTTZ
 70
     0
  9
$DIMFIT
 70
     3
  9
$DIMUPT
 70
     0
  9
$DIMUNIT
 70
     2
  9
$DIMDEC
 70
     4
  9
$DIMTDEC
 70
     4
  9
$DIMALTU
 70
     2
  9
$DIMALTTD
 70
     2
  9
$DIMTXSTY
  7
STANDARD
  9
$DIMAUNIT
 70
     0
  9
$LUNITS
 70
     2
  9
$LUPREC
 70
     4
  9
$SKETCHINC
 40
0.1
  9
$FILLETRAD
 40
0.5
  9
$AUNITS
 70
     0
  9
$AUPREC
 70
     0
  9
$MENU
  1
.
  9
$ELEVATION
 40
0.0
  9
$PELEVATION
 40
0.0
  9
$THICKNESS
 40
0.0
  9
$LIMCHECK
 70
     0
  9
$CHAMFERA
 40
0.5
  9
$CHAMFERB
 40
0.5
  9
$CHAMFERC
 40
1.0
  9
$CHAMFERD
 40
0.0
  9
$SKPOLY
 70
     0
  9
$TDCREATE
 40
2456637.489872674
  9
$TDUPDATE
 40
2456637.489872697
  9
$TDINDWG
 40
0.0000000116
  9
$TDUSRTIMER
 40
0.0000000116
  9
$USRTIMER
 70
     1
  9
$ANGBASE
 50
0.0
  9
$ANGDIR
 70
     0
  9
$PDMODE
 70
     0
  9
$PDSIZE
 40
0.0
  9
$PLINEWID
 40
0.0
  9
$COORDS
 70
     1
  9
$SPLFRAME
 70
     0
  9
$SPLINETYPE
 70
     6
  9
$SPLINESEGS
 70
     8
  9
$ATTDIA
 70
     0
  9
$ATTREQ
 70
     1
  9
$HANDLING
 70
     1
  9
$HANDSEED
  5
1F7
  9
$SURFTAB1
 70
     6
  9
$SURFTAB2
 70
     6
  9
$SURFTYPE
 70
     6
  9
$SURFU
 70
     6
  9
$SURFV
 70
     6
  9
$UCSNAME
  2

  9
$UCSORG
 10
0.0
 20
0.0
 30
0.0
  9
$UCSXDIR
 10
1.0
 20
0.0
 30
0.0
  9
$UCSYDIR
 10
0.0
 20
1.0
 30
0.0
  9
$PUCSNAME
  2

  9
$PUCSORG
 10
0.0
 20
0.0
 30
0.0
  9
$PUCSXDIR
 10
1.0
 20
0.0
 30
0.0
  9
$PUCSYDIR
 10
0.0
 20
1.0
 30
0.0
  9
$USERI1
 70
     0
  9
$USERI2
 70
     0
  9
$USERI3
 70
     0
  9
$USERI4
 70
     0
  9
$USERI5
 70
     0
  9
$USERR1
 40
0.0
  9
$USERR2
 40
0.0
  9
$USERR3
 40
0.0
  9
$USERR4
 40
0.0
  9
$USERR5
 40
0.0
  9
$WORLDVIEW
 70
     1
  9
$SHADEDGE
 70
     3
  9
$SHADEDIF
 70
    70
  9
$TILEMODE
 70
     1
  9
$MAXACTVP
 70
    64
  9
$PINSBASE
 10
0.0
 20
0.0
 30
0.0
  9
$PLIMCHECK
 70
     0
  9
$PEXTMIN
 10
1.000000000000000E+20
 20
1.000000000000000E+20
 30
1.000000000000000E+20
  9
$PEXTMAX
 10
-1.000000000000000E+20
 20
-1.000000000000000E+20
 30
-1.000000000000000E+20
  9
$PLIMMIN
 10
0.0
 20
0.0
  9
$PLIMMAX
 10
12.0
 20
9.0
  9
$UNITMODE
 70
     0
  9
$VISRETAIN
 70
     1
  9
$PLINEGEN
 70
     0
  9
$PSLTSCALE
 70
     1
  9
$TREEDEPTH
 70
  3020
  9
$PICKSTYLE
 70
     1
  9
$CMLSTYLE
  2
STANDARD
  9
$CMLJUST
 70
     0
  9
$CMLSCALE
 40
1.0
  9
$PROXYGRAPHICS
 70
     1
  9
$MEASUREMENT
 70
     0
  0
ENDSEC
  0
SECTION
  2
CLASSES
  0
CLASS
  1
ACDBDICTIONARYWDFLT
  2
AcDbDictionaryWithDefault
  3
ObjectDBX Classes
 90
        0
280
     0
281
     0
  0
CLASS
  1
VISUALSTYLE
  2
AcDbVisualStyle
  3
ObjectDBX Classes
 90
     4095
280
     0
281
     0
  0
CLASS
  1
MATERIAL
  2
AcDbMaterial
  3
ObjectDBX Classes
 90
     1153
280
     0
281
     0
  0
CLASS
  1
DICTIONARYVAR
  2
AcDbDictionaryVar
  3
ObjectDBX Classes
 90
        0
280
     0
281
     0
  0
CLASS
  1
XRECORD
  2
AcDbXrecord
  3
AutoCAD 2000
 90
        0
280
     0
281
     0
  0
CLASS
  1
LWPOLYLINE
  2
AcDbPolyline
  3
AutoCAD 2000
 90
        0
280
     0
281
     1
  0
CLASS
  1
HATCH
  2
AcDbHatch
  3
AutoCAD 2000
 90
        0
280
     0
281
     1
  0
CLASS
  1
ACDBPLACEHOLDER
  2
AcDbPlaceHolder
  3
ObjectDBX Classes
 90
        0
280
     0
281
     0
  0
CLASS
  1
LAYOUT
  2
AcDbLayout
  3
ObjectDBX Classes
 90
        0
280
     0
281
     0
  0
ENDSEC
  0
SECTION
  2
TABLES
  0
TABLE
  2
VPORT
  5
8
330
0
100
AcDbSymbolTable
 70
     1
  0
VPORT
  5
29
330
8
100
AcDbSymbolTableRecord
100
AcDbViewportTableRecord
  2
*ACTIVE
 70
     0
 10
0.0
 20
0.0
 11
1.0
 21
1.0
 12
0.0
 22
0.0
 13
0.0
 23
0.0
 14
0.5
 24
0.5
 15
0.5
 25
0.5
 16
0.0
 26
0.0
 36
1.0
 17
0.0
 27
0.0
 37
-1000.0
 40
158.1566315574841
 41
1.824650571791614
 42
50.0
 43
250.8043753034951
 44
1545.666930483423
 50
0.0
 51
0.0
 71
     0
 72
   100
 73
     1
 74
     3
 75
     0
 76
     0
 77
     0
 78
     0
  0
ENDTAB
  0
TABLE
  2
LTYPE
  5
5
330
0
100
AcDbSymbolTable
 70
     1
  0
LTYPE
  5
14
330
5
100
AcDbSymbolTableRecord
100
AcDbLinetypeTableRecord
  2
BYBLOCK
 70
     0
  3

 72
    65
 73
     0
 40
0.0
  0
LTYPE
  5
15
330
5
100
AcDbSymbolTableRecord
100
AcDbLinetypeTableRecord
  2
BYLAYER
 70
     0
  3

 72
    65
 73
     0
 40
0.0
  0
LTYPE
  5
16
330
5
100
AcDbSymbolTableRecord
100
AcDbLinetypeTableRecord
  2
CONTINUOUS
 70
     0
  3
Solid line
 72
    65
 73
     0
 40
0.0
  0
ENDTAB
  0
TABLE
  2
LAYER
  5
2
330
0
100
AcDbSymbolTable
 70
     3
  0
LAYER
  5
10
330
2
100
AcDbSymbolTableRecord
100
AcDbLayerTableRecord
  2
0
 70
     0
 62
     7
  6
CONTINUOUS
  0
LAYER
  5
3F
330
2
100
AcDbSymbolTableRecord
100
AcDbLayerTableRecord
  2
PROFILEEDGES
 70
     0
 62
     7
  6
CONTINUOUS
  0
LAYER
  5
40
330
2
100
AcDbSymbolTableRecord
100
AcDbLayerTableRecord
  2
SECTIONCUTEDGES
 70
     0
 62
     7
  6
CONTINUOUS
  0
ENDTAB
  0
TABLE
  2
STYLE
  5
3
330
0
100
AcDbSymbolTable
 70
     1
  0
STYLE
  5
11
330
3
100
AcDbSymbolTableRecord
100
AcDbTextStyleTableRecord
  2
STANDARD
 70
     0
 40
0.0
 41
1.0
 50
0.0
 71
     0
 42
0.2
  3
txt
  4

  0
ENDTAB
  0
TABLE
  2
VIEW
  5
6
330
0
100
AcDbSymbolTable
 70
     0
  0
ENDTAB
  0
TABLE
  2
UCS
  5
7
330
0
100
AcDbSymbolTable
 70
     0
  0
ENDTAB
  0
TABLE
  2
APPID
  5
9
330
0
100
AcDbSymbolTable
 70
     1
  0
APPID
  5
12
330
9
100
AcDbSymbolTableRecord
100
AcDbRegAppTableRecord
  2
ACAD
 70
     0
  0
ENDTAB
  0
TABLE
  2
DIMSTYLE
  5
A
330
0
100
AcDbSymbolTable
 70
     1
  0
DIMSTYLE
105
27
330
A
100
AcDbSymbolTableRecord
100
AcDbDimStyleTableRecord
  2
STANDARD
 70
     0
  3

  4

  5

  6

  7

 40
1.0
 41
0.18
 42
0.0625
 43
0.38
 44
0.18
 45
0.0
 46
0.0
 47
0.0
 48
0.0
140
0.18
141
0.09
142
0.0
143
25.4
144
1.0
145
0.0
146
1.0
147
0.09
 71
     0
 72
     0
 73
     1
 74
     1
 75
     0
 76
     0
 77
     0
 78
     0
170
     0
171
     2
172
     0
173
     0
174
     0
175
     0
176
     0
177
     0
178
     0
270
     2
271
     4
272
     4
273
     2
274
     2
340
11
275
     0
280
     0
281
     0
282
     0
283
     1
284
     0
285
     0
286
     0
287
     3
288
     0
  0
ENDTAB
  0
TABLE
  2
BLOCK_RECORD
  5
1
330
0
100
AcDbSymbolTable
 70
     1
  0
BLOCK_RECORD
  5
1F
330
1
100
AcDbSymbolTableRecord
100
AcDbBlockTableRecord
  2
*MODEL_SPACE
  0
BLOCK_RECORD
  5
1B
330
1
100
AcDbSymbolTableRecord
100
AcDbBlockTableRecord
  2
*PAPER_SPACE
  0
ENDTAB
  0
ENDSEC
  0
SECTION
  2
BLOCKS
  0
BLOCK
  5
20
330
1F
100
AcDbEntity
  8
0
100
AcDbBlockBegin
  2
*MODEL_SPACE
 70
     0
 10
0.0
 20
0.0
 30
0.0
  3
*MODEL_SPACE
  1

  0
ENDBLK
  5
21
330
1F
100
AcDbEntity
  8
0
100
AcDbBlockEnd
  0
BLOCK
  5
1C
330
1B
100
AcDbEntity
 67
     1
  8
0
100
AcDbBlockBegin
  2
*PAPER_SPACE
 70
     0
 10
0.0
 20
0.0
 30
0.0
  3
*PAPER_SPACE
  1

  0
ENDBLK
  5
1D
330
1B
100
AcDbEntity
 67
     1
  8
0
100
AcDbBlockEnd
  0
ENDSEC
  0
SECTION
  2
ENTITIES
  0
LINE
  5
41
330
1F
100
AcDbEntity
  8
0
 62
   178
100
AcDbLine
 10
54.54456901392504
 20
-5.273629532804272
 30
0.0
 11
54.58711113987654
 21
-5.330441251092034
 31
0.0
  0
LINE
  5
42
330
1F
100
AcDbEntity
  8
0
 62
   178
100
AcDbLine
 10
45.68761964416192
 20
-9.126656060439412
 30
0.0
 11
45.89495469260458
 21
-9.192687682671478
 31
0.0
  0
LINE
  5
43
330
1F
100
AcDbEntity
  8
0
 62
   178
100
AcDbLine
 10
48.63823797151451
 20
-6.126092170807196
 30
0.0
 11
48.63371795557686
 21
-6.068695130097152
 31
0.0
  0
LINE
  5
44
330
1F
100
AcDbEntity
  8
0
 62
   178
100
AcDbLine
 10
55.02350929879086
 20
-5.487868522593035
 30
0.0
 11
55.1616915932189
 21
-5.496171993797225
 31
0.0
  0
LINE
  5
45
330
1F
100
AcDbEntity
  8
0
 62
   178
100
AcDbLine
 10
48.44652282242789
 20
-6.259930546431209
 30
0.0
 11
48.54137140093923
 21
-6.225102117062169
 31
0.0
  0
LINE
  5
46
330
1F
100
AcDbEntity
  8
0
 62
   178
100
AcDbLine
 10
51.00570999662514
 20
-9.73102596381073
 30
0.0
 11
51.07486639851332
 21
-9.741070809279128
 31
0.0
  0
LINE
  5
47
330
1F
100
AcDbEntity
  8
0
 62
   178
100
AcDbLine
 10
59.41482684593316
 20
-8.79298729557053
 30
0.0
 11
59.47002975091929
 21
-8.78017459879411
 31
0.0
  0
LINE
  5
48
330
1F
100
AcDbEntity
  8
0
 62
   178
100
AcDbLine
 10
51.21446258853042
 20
-9.749655001153325
 30
0.0
 11
51.28250034552758
 21
-9.748045818991855
 31
0.0
  0
LINE
  5
49
330
1F
100
AcDbEntity
  8
0
 62
   178
100
AcDbLine
 10
55.51045647485892
 20
-4.877318792520957
 30
0.0
 11
55.56825340086402
 21
-4.895469853737064
 31
0.0
  0
LINE
  5
4A
330
1F
100
AcDbEntity
  8
0
 62
   178
100
AcDbLine
 10
54.76495713518985
 20
-5.429601535062629
 30
0.0
 11
54.88817610960871
 21
-5.465157237634823
 31
0.0
  0
LINE
  5
4B
330
1F
100
AcDbEntity
  8
0
 62
   178
100
AcDbLine
 10
54.66227116002579
 20
-5.383645405740458
 30
0.0
 11
54.76495713518985
 21
-5.429601535062629
 31
0.0
  0
LINE
  5
4C
330
1F
100
AcDbEntity
  8
0
 62
   178
100
AcDbLine
 10
46.98888599193437
 20
-5.924981803302824
 30
0.0
 11
46.98265931794504
 21
-5.896781892545201
 31
0.0
  0
LINE
  5
4D
330
1F
100
AcDbEntity
  8
0
 62
   178
100
AcDbLine
 10
55.40918457109104
 20
-5.468299342522106
 30
0.0
 11
55.5015518614593
 21
-5.434042466158798
 31
0.0
  0
LINE
  5
4E
330
1F
100
AcDbEntity
  8
0
 62
   178
100
AcDbLine
 10
48.59355463652736
 20
-6.011171566704067
 30
0.0
 11
48.52053287757899
 21
-5.95743639212042
 31
0.0
  0
LINE
  5
4F
330
1F
100
AcDbEntity
  8
0
 62
   178
100
AcDbLine
 10
66.2692388560765
 20
-6.312644739522094
 30
0.0
 11
66.40311375970326
 21
-6.338460485303651
 31
0.0
  0
LINE
  5
50
330
1F
100
AcDbEntity
  8
0
 62
   178
100
AcDbLine
 10
66.14071976468291
 20
-6.28043651144376
 30
0.0
 11
66.2692388560765
 21
-6.312644739522094
 31
0.0
  0
LINE
  5
51
330
1F
100
AcDbEntity
  8
0
 62
   178
100
AcDbLine
 10
66.01977029421322
 20
-6.242396967798948
 30
0.0
 11
66.14071976468291
 21
-6.28043651144376
 31
0.0
  0
LINE
  5
52
330
1F
100
AcDbEntity
  8
0
 62
   178
100
AcDbLine
 10
65.90846863485419
 20
-6.199187696256894
 30
0.0
 11
66.01977029421322
 21
-6.242396967798948
 31
0.0
  0
LINE
  5
53
330
1F
100
AcDbEntity
  8
0
 62
   178
100
AcDbLine
 10
50.93857207319535
 20
-9.71735569384293
 30
0.0
 11
51.00570999662514
 21
-9.73102596381073
 31
0.0
  0
LINE
  5
54
330
1F
100
AcDbEntity
  8
0
 62
   178
100
AcDbLine
 10
58.00774016365396
 20
-8.510570919683097
 30
0.0
 11
58.0946646999751
 21
-8.565041687920075
 31
0.0
  0
LINE
  5
55
330
1F
100
AcDbEntity
  8
0
 62
   178
100
AcDbLine
 10
47.58306801836508
 20
-6.005983506095451
 30
0.0
 11
47.58706824780189
 21
-6.063318755091936
 31
0.0
  0
LINE
  5
56
330
1F
100
AcDbEntity
  8
0
 62
   178
100
AcDbLine
 10
47.92233118140773
 20
-6.257233464230851
 30
0.0
 11
48.057285058369
 21
-6.28013915216609
 31
0.0
  0
LINE
  5
57
330
1F
100
AcDbEntity
  8
0
 62
   178
100
AcDbLine
 10
58.00643847016439
 20
-8.284473242783589
 30
0.0
 11
57.95238449393391
 21
-8.33420510525919
 31
0.0
  0
LINE
  5
58
330
1F
100
AcDbEntity
  8
0
 62
   178
100
AcDbLine
 10
55.56405687411041
 20
-5.389080146154467
 30
0.0
 11
55.59246183802918
 21
-5.336497380980818
 31
0.0
  0
LINE
  5
59
330
1F
100
AcDbEntity
  8
0
 62
   178
100
AcDbLine
 10
55.59246183802918
 20
-5.336497380980818
 30
0.0
 11
55.58487344049114
 21
-5.279893158791851
 31
0.0
  0
LINE
  5
5A
330
1F
100
AcDbEntity
  8
0
 62
   178
100
AcDbLine
 10
65.6504634517594
 20
-6.046400285756691
 30
0.0
 11
65.51179898437475
 21
-5.927232068169208
 31
0.0
  0
LINE
  5
5B
330
1F
100
AcDbEntity
  8
0
 62
   178
100
AcDbLine
 10
65.51179898437475
 20
-5.927232068169208
 30
0.0
 11
65.44023629863179
 21
-5.873457845958535
 31
0.0
  0
LINE
  5
5C
330
1F
100
AcDbEntity
  8
0
 62
   178
100
AcDbLine
 10
65.44023629863179
 20
-5.873457845958535
 30
0.0
 11
65.3541127749493
 21
-5.822477819545629
 31
0.0
  0
LINE
  5
5D
330
1F
100
AcDbEntity
  8
0
 62
   178
100
AcDbLine
 10
65.3541127749493
 20
-5.822477819545629
 30
0.0
 11
65.2549130526946
 21
-5.775155890759747
 31
0.0
  0
LINE
  5
5E
330
1F
100
AcDbEntity
  8
0
 62
   178
100
AcDbLine
 10
65.2549130526946
 20
-5.775155890759747
 30
0.0
 11
65.14433907987642
 21
-5.732291940387873
 31
0.0
  0
LINE
  5
5F
330
1F
100
AcDbEntity
  8
0
 62
   178
100
AcDbLine
 10
65.14433907987642
 20
-5.732291940387873
 30
0.0
 11
65.02428069267651
 21
-5.694608809451275
 31
0.0
  0
LINE
  5
60
330
1F
100
AcDbEntity
  8
0
 62
   178
100
AcDbLine
 10
65.02428069267651
 20
-5.694608809451275
 30
0.0
 11
64.89678343518365
 21
-5.662740648217258
 31
0.0
  0
LINE
  5
61
330
1F
100
AcDbEntity
  8
0
 62
   178
100
AcDbLine
 10
64.89678343518365
 20
-5.662740648217258
 30
0.0
 11
64.76401415766885
 21
-5.637222783971363
 31
0.0
  0
LINE
  5
62
330
1F
100
AcDbEntity
  8
0
 62
   178
100
AcDbLine
 10
64.76401415766885
 20
-5.637222783971363
 30
0.0
 11
64.62822494036762
 21
-5.618483232783944
 31
0.0
  0
LINE
  5
63
330
1F
100
AcDbEntity
  8
0
 62
   178
100
AcDbLine
 10
64.62822494036762
 20
-5.618483232783944
 30
0.0
 11
64.49171589197321
 21
-5.606835955727058
 31
0.0
  0
LINE
  5
64
330
1F
100
AcDbEntity
  8
0
 62
   178
100
AcDbLine
 10
64.49171589197321
 20
-5.606835955727058
 30
0.0
 11
64.3567973695191
 21
-5.602475936406305
 31
0.0
  0
LINE
  5
65
330
1F
100
AcDbEntity
  8
0
 62
   178
100
AcDbLine
 10
64.3567973695191
 20
-5.602475936406305
 30
0.0
 11
64.22575216042719
 21
-5.605476134243244
 31
0.0
  0
LINE
  5
66
330
1F
100
AcDbEntity
  8
0
 62
   178
100
AcDbLine
 10
64.22575216042719
 20
-5.605476134243244
 30
0.0
 11
64.10079815928975
 21
-5.615786346487912
 31
0.0
  0
LINE
  5
67
330
1F
100
AcDbEntity
  8
0
 62
   178
100
AcDbLine
 10
64.10079815928975
 20
-5.615786346487912
 30
0.0
 11
58.21538807212762
 21
-6.291668089710926
 31
0.0
  0
LINE
  5
68
330
1F
100
AcDbEntity
  8
0
 62
   178
100
AcDbLine
 10
58.08915788734093
 20
-6.302100607985449
 30
0.0
 11
58.21538807212762
 21
-6.291668089710926
 31
0.0
  0
LINE
  5
69
330
1F
100
AcDbEntity
  8
0
 62
   178
100
AcDbLine
 10
57.95715948997552
 20
-6.305137094586386
 30
0.0
 11
58.08915788734093
 21
-6.302100607985449
 31
0.0
  0
LINE
  5
6A
330
1F
100
AcDbEntity
  8
0
 62
   178
100
AcDbLine
 10
57.82167608642743
 20
-6.300724442572145
 30
0.0
 11
57.95715948997552
 21
-6.305137094586386
 31
0.0
  0
LINE
  5
6B
330
1F
100
AcDbEntity
  8
0
 62
   178
100
AcDbLine
 10
57.68505175235024
 20
-6.288939824785469
 30
0.0
 11
57.82167608642743
 21
-6.300724442572145
 31
0.0
  0
LINE
  5
6C
330
1F
100
AcDbEntity
  8
0
 62
   178
100
AcDbLine
 10
57.54964954256882
 20
-6.269989257971606
 30
0.0
 11
57.68505175235024
 21
-6.288939824785469
 31
0.0
  0
LINE
  5
6D
330
1F
100
AcDbEntity
  8
0
 62
   178
100
AcDbLine
 10
57.41780931461923
 20
-6.244203775449695
 30
0.0
 11
57.54964954256882
 21
-6.269989257971606
 31
0.0
  0
LINE
  5
6E
330
1F
100
AcDbEntity
  8
0
 62
   178
100
AcDbLine
 10
57.29180610866615
 20
-6.212033295030844
 30
0.0
 11
57.41780931461923
 21
-6.244203775449695
 31
0.0
  0
LINE
  5
6F
330
1F
100
AcDbEntity
  8
0
 62
   178
100
AcDbLine
 10
57.17380990559869
 20
-6.174038319874819
 30
0.0
 11
57.29180610866615
 21
-6.212033295030844
 31
0.0
  0
LINE
  5
70
330
1F
100
AcDbEntity
  8
0
 62
   178
100
AcDbLine
 10
57.06584754235955
 20
-6.130879656250719
 30
0.0
 11
57.17380990559869
 21
-6.174038319874819
 31
0.0
  0
LINE
  5
71
330
1F
100
AcDbEntity
  8
0
 62
   178
100
AcDbLine
 10
56.9697675011876
 20
-6.083306372276586
 30
0.0
 11
57.06584754235955
 21
-6.130879656250719
 31
0.0
  0
LINE
  5
72
330
1F
100
AcDbEntity
  8
0
 62
   178
100
AcDbLine
 10
67.12264558960763
 20
-6.36423463131475
 30
0.0
 11
67.08884568737443
 21
-6.3628959781189
 31
0.0
  0
LINE
  5
73
330
1F
100
AcDbEntity
  8
0
 62
   178
100
AcDbLine
 10
67.08884568737443
 20
-6.3628959781189
 30
0.0
 11
67.05593521467551
 21
-6.363336627704364
 31
0.0
  0
LINE
  5
74
330
1F
100
AcDbEntity
  8
0
 62
   178
100
AcDbLine
 10
62.8999520826756
 20
-7.41567145644018
 30
0.0
 11
62.98691580815461
 21
-7.475067985388276
 31
0.0
  0
LINE
  5
75
330
1F
100
AcDbEntity
  8
0
 62
   178
100
AcDbLine
 10
62.98691580815461
 20
-7.475067985388276
 30
0.0
 11
63.10346989517515
 21
-7.526338042655656
 31
0.0
  0
LINE
  5
76
330
1F
100
AcDbEntity
  8
0
 62
   178
100
AcDbLine
 10
63.10346989517515
 20
-7.526338042655656
 30
0.0
 11
63.24167526038701
 21
-7.565962404156998
 31
0.0
  0
LINE
  5
77
330
1F
100
AcDbEntity
  8
0
 62
   178
100
AcDbLine
 10
63.24167526038701
 20
-7.565962404156998
 30
0.0
 11
63.39208533829878
 21
-7.591215092376163
 31
0.0
  0
LINE
  5
78
330
1F
100
AcDbEntity
  8
0
 62
   178
100
AcDbLine
 10
63.39208533829878
 20
-7.591215092376163
 30
0.0
 11
63.54439736176946
 21
-7.60035604850118
 31
0.0
  0
LINE
  5
79
330
1F
100
AcDbEntity
  8
0
 62
   178
100
AcDbLine
 10
63.54439736176946
 20
-7.60035604850118
 30
0.0
 11
63.6881686081911
 21
-7.59275487172301
 31
0.0
  0
LINE
  5
7A
330
1F
100
AcDbEntity
  8
0
 62
   178
100
AcDbLine
 10
63.6881686081911
 20
-7.59275487172301
 30
0.0
 11
63.813544988636
 21
-7.56893579277404
 31
0.0
  0
LINE
  5
7B
330
1F
100
AcDbEntity
  8
0
 62
   178
100
AcDbLine
 10
63.813544988636
 20
-7.56893579277404
 30
0.0
 11
63.91194774415774
 21
-7.530540269313043
 31
0.0
  0
LINE
  5
7C
330
1F
100
AcDbEntity
  8
0
 62
   178
100
AcDbLine
 10
63.91194774415774
 20
-7.530540269313043
 30
0.0
 11
63.97666735173356
 21
-7.480210209027668
 31
0.0
  0
LINE
  5
7D
330
1F
100
AcDbEntity
  8
0
 62
   178
100
AcDbLine
 10
63.97666735173356
 20
-7.480210209027668
 30
0.0
 11
64.00332167095767
 21
-7.421401113277567
 31
0.0
  0
LINE
  5
7E
330
1F
100
AcDbEntity
  8
0
 62
   178
100
AcDbLine
 10
64.00332167095767
 20
-7.421401113277567
 30
0.0
 11
63.99014689342937
 21
-7.358139719577416
 31
0.0
  0
LINE
  5
7F
330
1F
100
AcDbEntity
  8
0
 62
   178
100
AcDbLine
 10
63.99014689342937
 20
-7.358139719577416
 30
0.0
 11
63.93810357253955
 21
-7.294744508226023
 31
0.0
  0
LINE
  5
80
330
1F
100
AcDbEntity
  8
0
 62
   178
100
AcDbLine
 10
63.93810357253955
 20
-7.294744508226023
 30
0.0
 11
63.85079434368387
 21
-7.235529473721443
 31
0.0
  0
LINE
  5
81
330
1F
100
AcDbEntity
  8
0
 62
   178
100
AcDbLine
 10
63.85079434368387
 20
-7.235529473721443
 30
0.0
 11
63.73420345783948
 21
-7.184511848129596
 31
0.0
  0
LINE
  5
82
330
1F
100
AcDbEntity
  8
0
 62
   178
100
AcDbLine
 10
63.73420345783948
 20
-7.184511848129596
 30
0.0
 11
63.59627985947401
 21
-7.145143216889523
 31
0.0
  0
LINE
  5
83
330
1F
100
AcDbEntity
  8
0
 62
   178
100
AcDbLine
 10
63.59627985947401
 20
-7.145143216889523
 30
0.0
 11
63.44639461561163
 21
-7.120081034616722
 31
0.0
  0
LINE
  5
84
330
1F
100
AcDbEntity
  8
0
 62
   178
100
AcDbLine
 10
63.44639461561163
 20
-7.120081034616722
 30
0.0
 11
63.29470986436291
 21
-7.111014313807686
 31
0.0
  0
LINE
  5
85
330
1F
100
AcDbEntity
  8
0
 62
   178
100
AcDbLine
 10
63.29470986436291
 20
-7.111014313807686
 30
0.0
 11
63.15150025034819
 21
-7.11855356376116
 31
0.0
  0
LINE
  5
86
330
1F
100
AcDbEntity
  8
0
 62
   178
100
AcDbLine
 10
63.15150025034819
 20
-7.11855356376116
 30
0.0
 11
63.02646937281364
 21
-7.142191147171085
 31
0.0
  0
LINE
  5
87
330
1F
100
AcDbEntity
  8
0
 62
   178
100
AcDbLine
 10
63.02646937281364
 20
-7.142191147171085
 30
0.0
 11
62.92810341365052
 21
-7.180334238362802
 31
0.0
  0
LINE
  5
88
330
1F
100
AcDbEntity
  8
0
 62
   178
100
AcDbLine
 10
62.92810341365052
 20
-7.180334238362802
 30
0.0
 11
62.86310203722935
 21
-7.230408568888679
 31
0.0
  0
LINE
  5
89
330
1F
100
AcDbEntity
  8
0
 62
   178
100
AcDbLine
 10
62.86310203722935
 20
-7.230408568888679
 30
0.0
 11
62.83592288442219
 21
-7.289027159787944
 31
0.0
  0
LINE
  5
8A
330
1F
100
AcDbEntity
  8
0
 62
   178
100
AcDbLine
 10
62.83592288442219
 20
-7.289027159787944
 30
0.0
 11
62.84847039219375
 21
-7.352214318765864
 31
0.0
  0
LINE
  5
8B
330
1F
100
AcDbEntity
  8
0
 62
   178
100
AcDbLine
 10
62.84847039219375
 20
-7.352214318765864
 30
0.0
 11
62.8999520826756
 21
-7.41567145644018
 31
0.0
  0
LINE
  5
8C
330
1F
100
AcDbEntity
  8
0
 62
   178
100
AcDbLine
 10
45.80504131379136
 20
-9.643855891872331
 30
0.0
 11
45.87878376574774
 21
-9.591706731187651
 31
0.0
  0
LINE
  5
8D
330
1F
100
AcDbEntity
  8
0
 62
   178
100
AcDbLine
 10
45.87878376574774
 20
-9.591706731187651
 30
0.0
 11
45.91510311316357
 21
-9.530773083704744
 31
0.0
  0
LINE
  5
8E
330
1F
100
AcDbEntity
  8
0
 62
   178
100
AcDbLine
 10
45.91510311316357
 20
-9.530773083704744
 30
0.0
 11
45.91157577369248
 21
-9.46522750861879
 31
0.0
  0
LINE
  5
8F
330
1F
100
AcDbEntity
  8
0
 62
   178
100
AcDbLine
 10
45.91157577369248
 20
-9.46522750861879
 30
0.0
 11
45.86850594385034
 21
-9.399544547555085
 31
0.0
  0
LINE
  5
90
330
1F
100
AcDbEntity
  8
0
 62
   178
100
AcDbLine
 10
45.86850594385034
 20
-9.399544547555085
 30
0.0
 11
45.78888774834804
 21
-9.338193756212489
 31
0.0
  0
LINE
  5
91
330
1F
100
AcDbEntity
  8
0
 62
   178
100
AcDbLine
 10
45.67818543140559
 20
-9.285336921260619
 30
0.0
 11
45.54395076915194
 21
-9.244549592246626
 31
0.0
  0
LINE
  5
92
330
1F
100
AcDbEntity
  8
0
 62
   178
100
AcDbLine
 10
45.54395076915194
 20
-9.244549592246626
 30
0.0
 11
45.39530646447165
 21
-9.218584517009937
 31
0.0
  0
LINE
  5
93
330
1F
100
AcDbEntity
  8
0
 62
   178
100
AcDbLine
 10
45.39530646447165
 20
-9.218584517009937
 30
0.0
 11
45.24233121477608
 21
-9.209191206194276
 31
0.0
  0
LINE
  5
94
330
1F
100
AcDbEntity
  8
0
 62
   178
100
AcDbLine
 10
45.24233121477608
 20
-9.209191206194276
 30
0.0
 11
45.09538653435542
 21
-9.217002023709675
 31
0.0
  0
LINE
  5
95
330
1F
100
AcDbEntity
  8
0
 62
   178
100
AcDbLine
 10
45.09538653435542
 20
-9.217002023709675
 30
0.0
 11
44.96442756869934
 21
-9.241491160667115
 31
0.0
  0
LINE
  5
96
330
1F
100
AcDbEntity
  8
0
 62
   178
100
AcDbLine
 10
44.85834037639808
 20
-9.281008742979841
 30
0.0
 11
44.7843466742981
 21
-9.332888203375672
 31
0.0
  0
LINE
  5
97
330
1F
100
AcDbEntity
  8
0
 62
   178
100
AcDbLine
 10
44.7843466742981
 20
-9.332888203375672
 30
0.0
 11
44.74751386029482
 21
-9.393620938732095
 31
0.0
  0
LINE
  5
98
330
1F
100
AcDbEntity
  8
0
 62
   178
100
AcDbLine
 10
44.74751386029482
 20
-9.393620938732095
 30
0.0
 11
44.75040309957495
 21
-9.459088223657819
 31
0.0
  0
LINE
  5
99
330
1F
100
AcDbEntity
  8
0
 62
   178
100
AcDbLine
 10
44.75040309957495
 20
-9.459088223657819
 30
0.0
 11
44.79288117312066
 21
-9.524836494075277
 31
0.0
  0
LINE
  5
9A
330
1F
100
AcDbEntity
  8
0
 62
   178
100
AcDbLine
 10
44.79288117312066
 20
-9.524836494075277
 30
0.0
 11
44.87211251602708
 21
-9.586378694897705
 31
0.0
  0
LINE
  5
9B
330
1F
100
AcDbEntity
  8
0
 62
   178
100
AcDbLine
 10
44.982736541032
 20
-9.6395017518781
 30
0.0
 11
45.1172224512007
 21
-9.68055878172923
 31
0.0
  0
LINE
  5
9C
330
1F
100
AcDbEntity
  8
0
 62
   178
100
AcDbLine
 10
45.1172224512007
 20
-9.68055878172923
 30
0.0
 11
45.26638022278842
 21
-9.70672477028948
 31
0.0
  0
LINE
  5
9D
330
1F
100
AcDbEntity
  8
0
 62
   178
100
AcDbLine
 10
45.26638022278842
 20
-9.70672477028948
 30
0.0
 11
45.41999357522351
 21
-9.716196371914167
 31
0.0
  0
LINE
  5
9E
330
1F
100
AcDbEntity
  8
0
 62
   178
100
AcDbLine
 10
45.41999357522351
 20
-9.716196371914167
 30
0.0
 11
45.56753001416919
 21
-9.708320244496724
 31
0.0
  0
LINE
  5
9F
330
1F
100
AcDbEntity
  8
0
 62
   178
100
AcDbLine
 10
45.56753001416919
 20
-9.708320244496724
 30
0.0
 11
45.69887583210111
 21
-9.683639696862368
 31
0.0
  0
LINE
  5
A0
330
1F
100
AcDbEntity
  8
0
 62
   178
100
AcDbLine
 10
52.96086251812535
 20
-7.542615465713405
 30
0.0
 11
53.17434853557507
 21
-7.578983008577009
 31
0.0
  0
LINE
  5
A1
330
1F
100
AcDbEntity
  8
0
 62
   178
100
AcDbLine
 10
53.17434853557507
 20
-7.578983008577009
 30
0.0
 11
53.39261093589246
 21
-7.592149004194194
 31
0.0
  0
LINE
  5
A2
330
1F
100
AcDbEntity
  8
0
 62
   178
100
AcDbLine
 10
53.39261093589246
 20
-7.592149004194194
 30
0.0
 11
53.60064631298763
 21
-7.581200736438672
 31
0.0
  0
LINE
  5
A3
330
1F
100
AcDbEntity
  8
0
 62
   178
100
AcDbLine
 10
53.60064631298763
 20
-7.581200736438672
 30
0.0
 11
53.78415945111903
 21
-7.546897221675606
 31
0.0
  0
LINE
  5
A4
330
1F
100
AcDbEntity
  8
0
 62
   178
100
AcDbLine
 10
53.78415945111903
 20
-7.546897221675606
 30
0.0
 11
53.93056932637332
 21
-7.491613988919516
 31
0.0
  0
LINE
  5
A5
330
1F
100
AcDbEntity
  8
0
 62
   178
100
AcDbLine
 10
53.93056932637332
 20
-7.491613988919516
 30
0.0
 11
54.02988660876661
 21
-7.419170971841175
 31
0.0
  0
LINE
  5
A6
330
1F
100
AcDbEntity
  8
0
 62
   178
100
AcDbLine
 10
54.02988660876661
 20
-7.419170971841175
 30
0.0
 11
54.07539743983544
 21
-7.334558033374317
 31
0.0
  0
LINE
  5
A7
330
1F
100
AcDbEntity
  8
0
 62
   178
100
AcDbLine
 10
54.07539743983544
 20
-7.334558033374317
 30
0.0
 11
54.06410615134151
 21
-7.24358067508927
 31
0.0
  0
LINE
  5
A8
330
1F
100
AcDbEntity
  8
0
 62
   178
100
AcDbLine
 10
54.06410615134151
 20
-7.24358067508927
 30
0.0
 11
53.99691086066947
 21
-7.152453914923488
 31
0.0
  0
LINE
  5
A9
330
1F
100
AcDbEntity
  8
0
 62
   178
100
AcDbLine
 10
53.99691086066947
 20
-7.152453914923488
 30
0.0
 11
53.87850774464188
 21
-7.067374798761907
 31
0.0
  0
LINE
  5
AA
330
1F
100
AcDbEntity
  8
0
 62
   178
100
AcDbLine
 10
53.87850774464188
 20
-7.067374798761907
 30
0.0
 11
53.71703979574141
 21
-6.994103682452856
 31
0.0
  0
LINE
  5
AB
330
1F
100
AcDbEntity
  8
0
 62
   178
100
AcDbLine
 10
53.71703979574141
 20
-6.994103682452856
 30
0.0
 11
53.52352228615081
 21
-6.937581800487736
 31
0.0
  0
LINE
  5
AC
330
1F
100
AcDbEntity
  8
0
 62
   178
100
AcDbLine
 10
53.52352228615081
 20
-6.937581800487736
 30
0.0
 11
53.31108921285426
 21
-6.901608446452558
 31
0.0
  0
LINE
  5
AD
330
1F
100
AcDbEntity
  8
0
 62
   178
100
AcDbLine
 10
53.31108921285426
 20
-6.901608446452558
 30
0.0
 11
53.09411273399081
 21
-6.888596056368538
 31
0.0
  0
LINE
  5
AE
330
1F
100
AcDbEntity
  8
0
 62
   178
100
AcDbLine
 10
53.09411273399081
 20
-6.888596056368538
 30
0.0
 11
52.88725169024485
 21
-6.899416186951997
 31
0.0
  0
LINE
  5
AF
330
1F
100
AcDbEntity
  8
0
 62
   178
100
AcDbLine
 10
52.88725169024485
 20
-6.899416186951997
 30
0.0
 11
52.70448663247857
 21
-6.933344156876669
 31
0.0
  0
LINE
  5
B0
330
1F
100
AcDbEntity
  8
0
 62
   178
100
AcDbLine
 10
52.70448663247857
 20
-6.933344156876669
 30
0.0
 11
52.55819813765918
 21
-6.988105065782704
 31
0.0
  0
LINE
  5
B1
330
1F
100
AcDbEntity
  8
0
 62
   178
100
AcDbLine
 10
52.55819813765918
 20
-6.988105065782704
 30
0.0
 11
52.45834301577145
 21
-7.060018937184516
 31
0.0
  0
LINE
  5
B2
330
1F
100
AcDbEntity
  8
0
 62
   178
100
AcDbLine
 10
52.45834301577145
 20
-7.060018937184516
 30
0.0
 11
52.41177924214385
 21
-7.144237691517957
 31
0.0
  0
LINE
  5
B3
330
1F
100
AcDbEntity
  8
0
 62
   178
100
AcDbLine
 10
52.41177924214385
 20
-7.144237691517957
 30
0.0
 11
52.42178461953938
 21
-7.235061446814439
 31
0.0
  0
LINE
  5
B4
330
1F
100
AcDbEntity
  8
0
 62
   178
100
AcDbLine
 10
52.42178461953938
 20
-7.235061446814439
 30
0.0
 11
52.48780558562331
 21
-7.326316342001862
 31
0.0
  0
LINE
  5
B5
330
1F
100
AcDbEntity
  8
0
 62
   178
100
AcDbLine
 10
52.48780558562331
 20
-7.326316342001862
 30
0.0
 11
52.60546061969145
 21
-7.411770998306822
 31
0.0
  0
LINE
  5
B6
330
1F
100
AcDbEntity
  8
0
 62
   178
100
AcDbLine
 10
52.60546061969145
 20
-7.411770998306822
 30
0.0
 11
52.76680717780149
 21
-7.485564435921335
 31
0.0
  0
LINE
  5
B7
330
1F
100
AcDbEntity
  8
0
 62
   178
100
AcDbLine
 10
52.76680717780149
 20
-7.485564435921335
 30
0.0
 11
52.96086251812535
 21
-7.542615465713405
 31
0.0
  0
LINE
  5
B8
330
1F
100
AcDbEntity
  8
0
 62
   178
100
AcDbLine
 10
67.02443425407517
 20
-6.365549636674895
 30
0.0
 11
67.05593521467551
 21
-6.363336627704364
 31
0.0
  0
LINE
  5
B9
330
1F
100
AcDbEntity
  8
0
 62
   178
100
AcDbLine
 10
66.94537625989481
 20
-6.370609532320817
 30
0.0
 11
67.02443425407517
 21
-6.365549636674895
 31
0.0
  0
LINE
  5
BA
330
1F
100
AcDbEntity
  8
0
 62
   178
100
AcDbLine
 10
66.8135308968016
 20
-6.373649584131424
 30
0.0
 11
66.94537625989481
 21
-6.370609532320817
 31
0.0
  0
LINE
  5
BB
330
1F
100
AcDbEntity
  8
0
 62
   178
100
AcDbLine
 10
66.67763301408576
 20
-6.369231751150203
 30
0.0
 11
66.8135308968016
 21
-6.373649584131424
 31
0.0
  0
LINE
  5
BC
330
1F
100
AcDbEntity
  8
0
 62
   178
100
AcDbLine
 10
66.54003393661378
 20
-6.357433297811594
 30
0.0
 11
66.67763301408576
 21
-6.369231751150203
 31
0.0
  0
LINE
  5
BD
330
1F
100
AcDbEntity
  8
0
 62
   178
100
AcDbLine
 10
66.40311375970326
 20
-6.338460485303651
 30
0.0
 11
66.54003393661378
 21
-6.357433297811594
 31
0.0
  0
LINE
  5
BE
330
1F
100
AcDbEntity
  8
0
 62
   178
100
AcDbLine
 10
65.808721212447
 20
-6.151558649500242
 30
0.0
 11
65.90846863485419
 21
-6.199187696256894
 31
0.0
  0
LINE
  5
BF
330
1F
100
AcDbEntity
  8
0
 62
   178
100
AcDbLine
 10
65.72222994258027
 20
-6.100334585446621
 30
0.0
 11
65.808721212447
 21
-6.151558649500242
 31
0.0
  0
LINE
  5
C0
330
1F
100
AcDbEntity
  8
0
 62
   178
100
AcDbLine
 10
65.6504634517594
 20
-6.046400285756691
 30
0.0
 11
65.72222994258027
 21
-6.100334585446621
 31
0.0
  0
LINE
  5
C1
330
1F
100
AcDbEntity
  8
0
 62
   178
100
AcDbLine
 10
56.88720821040147
 20
-6.032142254555133
 30
0.0
 11
56.9697675011876
 21
-6.083306372276586
 31
0.0
  0
LINE
  5
C2
330
1F
100
AcDbEntity
  8
0
 62
   178
100
AcDbLine
 10
56.81957040215295
 20
-5.978271044475581
 30
0.0
 11
56.88720821040147
 21
-6.032142254555133
 31
0.0
  0
LINE
  5
C3
330
1F
100
AcDbEntity
  8
0
 62
   178
100
AcDbLine
 10
56.81957040215295
 20
-5.978271044475581
 30
0.0
 11
59.59327283030532
 21
-8.526638032004838
 31
0.0
  0
LINE
  5
C4
330
1F
100
AcDbEntity
  8
0
 62
   178
100
AcDbLine
 10
59.62032262644461
 20
-8.555715774123657
 30
0.0
 11
59.59327283030532
 21
-8.526638032004838
 31
0.0
  0
LINE
  5
C5
330
1F
100
AcDbEntity
  8
0
 62
   178
100
AcDbLine
 10
59.63876327966732
 20
-8.585266600369021
 30
0.0
 11
59.62032262644461
 21
-8.555715774123657
 31
0.0
  0
LINE
  5
C6
330
1F
100
AcDbEntity
  8
0
 62
   178
100
AcDbLine
 10
59.64827286430418
 20
-8.614785203732408
 30
0.0
 11
59.63876327966732
 21
-8.585266600369021
 31
0.0
  0
LINE
  5
C7
330
1F
100
AcDbEntity
  8
0
 62
   178
100
AcDbLine
 10
59.64868192817653
 20
-8.643766080429334
 30
0.0
 11
59.64827286430418
 21
-8.614785203732408
 31
0.0
  0
LINE
  5
C8
330
1F
100
AcDbEntity
  8
0
 62
   178
100
AcDbLine
 10
59.63997685135879
 20
-8.671712207785767
 30
0.0
 11
59.64868192817653
 21
-8.643766080429334
 31
0.0
  0
LINE
  5
C9
330
1F
100
AcDbEntity
  8
0
 62
   178
100
AcDbLine
 10
59.62230053125819
 20
-8.698143626190976
 30
0.0
 11
59.63997685135879
 21
-8.671712207785767
 31
0.0
  0
LINE
  5
CA
330
1F
100
AcDbEntity
  8
0
 62
   178
100
AcDbLine
 10
59.59595035135656
 20
-8.722605773091054
 30
0.0
 11
59.62230053125819
 21
-8.698143626190976
 31
0.0
  0
LINE
  5
CB
330
1F
100
AcDbEntity
  8
0
 62
   178
100
AcDbLine
 10
59.56137343993947
 20
-8.744677418202857
 30
0.0
 11
59.59595035135656
 21
-8.722605773091054
 31
0.0
  0
LINE
  5
CC
330
1F
100
AcDbEntity
  8
0
 62
   178
100
AcDbLine
 10
59.51915927598363
 20
-8.763978053462965
 30
0.0
 11
59.56137343993947
 21
-8.744677418202857
 31
0.0
  0
LINE
  5
CD
330
1F
100
AcDbEntity
  8
0
 62
   178
100
AcDbLine
 10
59.47002975091929
 20
-8.78017459879411
 30
0.0
 11
59.51915927598363
 21
-8.763978053462965
 31
0.0
  0
LINE
  5
CE
330
1F
100
AcDbEntity
  8
0
 62
   178
100
AcDbLine
 10
59.35449813344728
 20
-8.802194673579478
 30
0.0
 11
59.41482684593316
 21
-8.79298729557053
 31
0.0
  0
LINE
  5
CF
330
1F
100
AcDbEntity
  8
0
 62
   178
100
AcDbLine
 10
59.35449813344728
 20
-8.802194673579478
 30
0.0
 11
51.34779454241101
 21
-9.742516809820389
 31
0.0
  0
LINE
  5
D0
330
1F
100
AcDbEntity
  8
0
 62
   178
100
AcDbLine
 10
51.28250034552758
 20
-9.748045818991855
 30
0.0
 11
51.34779454241101
 21
-9.742516809820389
 31
0.0
  0
LINE
  5
D1
330
1F
100
AcDbEntity
  8
0
 62
   178
100
AcDbLine
 10
51.14485197311554
 20
-9.747316508527092
 30
0.0
 11
51.21446258853042
 21
-9.749655001153325
 31
0.0
  0
LINE
  5
D2
330
1F
100
AcDbEntity
  8
0
 62
   178
100
AcDbLine
 10
51.07486639851332
 20
-9.741070809279128
 30
0.0
 11
51.14485197311554
 21
-9.747316508527092
 31
0.0
  0
LINE
  5
D3
330
1F
100
AcDbEntity
  8
0
 62
   178
100
AcDbLine
 10
50.87460634670438
 20
-9.700296283002729
 30
0.0
 11
50.93857207319535
 21
-9.71735569384293
 31
0.0
  0
LINE
  5
D4
330
1F
100
AcDbEntity
  8
0
 62
   178
100
AcDbLine
 10
50.81491086849609
 20
-9.680142370719567
 30
0.0
 11
50.87460634670438
 21
-9.700296283002729
 31
0.0
  0
LINE
  5
D5
330
1F
100
AcDbEntity
  8
0
 62
   178
100
AcDbLine
 10
50.76050899095388
 20
-9.657241722665168
 30
0.0
 11
50.81491086849609
 21
-9.680142370719567
 31
0.0
  0
LINE
  5
D6
330
1F
100
AcDbEntity
  8
0
 62
   178
100
AcDbLine
 10
50.71233172596676
 20
-9.631989080180855
 30
0.0
 11
50.76050899095388
 21
-9.657241722665168
 31
0.0
  0
LINE
  5
D7
330
1F
100
AcDbEntity
  8
0
 62
   178
100
AcDbLine
 10
50.67120180436646
 20
-9.604819207689767
 30
0.0
 11
50.71233172596676
 21
-9.631989080180855
 31
0.0
  0
LINE
  5
D8
330
1F
100
AcDbEntity
  8
0
 62
   178
100
AcDbLine
 10
50.63781970956391
 20
-9.576199270653397
 30
0.0
 11
50.67120180436646
 21
-9.604819207689767
 31
0.0
  0
LINE
  5
D9
330
1F
100
AcDbEntity
  8
0
 62
   178
100
AcDbLine
 10
48.08150802410314
 20
-7.039825502995078
 30
0.0
 11
48.03367683341054
 21
-6.983155868590117
 31
0.0
  0
LINE
  5
DA
330
1F
100
AcDbEntity
  8
0
 62
   178
100
AcDbLine
 10
48.11226853859862
 20
-7.097444792157355
 30
0.0
 11
48.08150802410314
 21
-7.039825502995078
 31
0.0
  0
LINE
  5
DB
330
1F
100
AcDbEntity
  8
0
 62
   178
100
AcDbLine
 10
48.12540699628627
 20
-7.155029110405277
 30
0.0
 11
48.11226853859862
 21
-7.097444792157355
 31
0.0
  0
LINE
  5
DC
330
1F
100
AcDbEntity
  8
0
 62
   178
100
AcDbLine
 10
48.12067246843386
 20
-7.211591548520482
 30
0.0
 11
48.12540699628627
 21
-7.155029110405277
 31
0.0
  0
LINE
  5
DD
330
1F
100
AcDbEntity
  8
0
 62
   178
100
AcDbLine
 10
48.0981205529387
 20
-7.266159904074073
 30
0.0
 11
48.12067246843386
 21
-7.211591548520482
 31
0.0
  0
LINE
  5
DE
330
1F
100
AcDbEntity
  8
0
 62
   178
100
AcDbLine
 10
48.05811416179524
 20
-7.317793610518632
 30
0.0
 11
48.0981205529387
 21
-7.266159904074073
 31
0.0
  0
LINE
  5
DF
330
1F
100
AcDbEntity
  8
0
 62
   178
100
AcDbLine
 10
48.00131888825688
 20
-7.365600296175207
 30
0.0
 11
48.05811416179524
 21
-7.317793610518632
 31
0.0
  0
LINE
  5
E0
330
1F
100
AcDbEntity
  8
0
 62
   178
100
AcDbLine
 10
47.92869292366855
 20
-7.408751658625625
 30
0.0
 11
48.00131888825688
 21
-7.365600296175207
 31
0.0
  0
LINE
  5
E1
330
1F
100
AcDbEntity
  8
0
 62
   178
100
AcDbLine
 10
47.84147160518364
 20
-7.446498341806388
 30
0.0
 11
47.92869292366855
 21
-7.408751658625625
 31
0.0
  0
LINE
  5
E2
330
1F
100
AcDbEntity
  8
0
 62
   178
100
AcDbLine
 10
47.74114679201084
 20
-7.478183513006827
 30
0.0
 11
47.84147160518364
 21
-7.446498341806388
 31
0.0
  0
LINE
  5
E3
330
1F
100
AcDbEntity
  8
0
 62
   178
100
AcDbLine
 10
47.62944138581815
 20
-7.503254855381989
 30
0.0
 11
47.74114679201084
 21
-7.478183513006827
 31
0.0
  0
LINE
  5
E4
330
1F
100
AcDbEntity
  8
0
 62
   178
100
AcDbLine
 10
47.50827942639481
 20
-7.521274718506705
 30
0.0
 11
47.62944138581815
 21
-7.503254855381989
 31
0.0
  0
LINE
  5
E5
330
1F
100
AcDbEntity
  8
0
 62
   178
100
AcDbLine
 10
47.50827942639481
 20
-7.521274718506705
 30
0.0
 11
42.0116802074816
 21
-8.152505339119019
 31
0.0
  0
LINE
  5
E6
330
1F
100
AcDbEntity
  8
0
 62
   178
100
AcDbLine
 10
41.88898803794522
 20
-8.170724168107842
 30
0.0
 11
42.0116802074816
 21
-8.152505339119019
 31
0.0
  0
LINE
  5
E7
330
1F
100
AcDbEntity
  8
0
 62
   178
100
AcDbLine
 10
41.7753747292281
 20
-8.196090918907105
 30
0.0
 11
41.88898803794522
 21
-8.170724168107842
 31
0.0
  0
LINE
  5
E8
330
1F
100
AcDbEntity
  8
0
 62
   178
100
AcDbLine
 10
41.67277085985779
 20
-8.228180401086066
 30
0.0
 11
41.7753747292281
 21
-8.196090918907105
 31
0.0
  0
LINE
  5
E9
330
1F
100
AcDbEntity
  8
0
 62
   178
100
AcDbLine
 10
41.58292499543479
 20
-8.266453954105629
 30
0.0
 11
41.67277085985779
 21
-8.228180401086066
 31
0.0
  0
LINE
  5
EA
330
1F
100
AcDbEntity
  8
0
 62
   178
100
AcDbLine
 10
41.50737425332457
 20
-8.310267962350787
 30
0.0
 11
41.58292499543479
 21
-8.266453954105629
 31
0.0
  0
LINE
  5
EB
330
1F
100
AcDbEntity
  8
0
 62
   178
100
AcDbLine
 10
41.44741802454418
 20
-8.35888410667948
 30
0.0
 11
41.50737425332457
 21
-8.310267962350787
 31
0.0
  0
LINE
  5
EC
330
1F
100
AcDbEntity
  8
0
 62
   178
100
AcDbLine
 10
41.40409529932349
 20
-8.411481228001234
 30
0.0
 11
41.44741802454418
 21
-8.35888410667948
 31
0.0
  0
LINE
  5
ED
330
1F
100
AcDbEntity
  8
0
 62
   178
100
AcDbLine
 10
41.3781660121477
 20
-8.467168651669683
 30
0.0
 11
41.40409529932349
 21
-8.411481228001234
 31
0.0
  0
LINE
  5
EE
330
1F
100
AcDbEntity
  8
0
 62
   178
100
AcDbLine
 10
41.37009678274338
 20
-8.525000793902567
 30
0.0
 11
41.3781660121477
 21
-8.467168651669683
 31
0.0
  0
LINE
  5
EF
330
1F
100
AcDbEntity
  8
0
 62
   178
100
AcDbLine
 10
41.38005138015964
 20
-8.583992843621184
 30
0.0
 11
41.37009678274338
 21
-8.525000793902567
 31
0.0
  0
LINE
  5
F0
330
1F
100
AcDbEntity
  8
0
 62
   178
100
AcDbLine
 10
41.40788617689304
 20
-8.64313728584178
 30
0.0
 11
41.38005138015964
 21
-8.583992843621184
 31
0.0
  0
LINE
  5
F1
330
1F
100
AcDbEntity
  8
0
 62
   178
100
AcDbLine
 10
41.45315078846178
 20
-8.701421007062974
 30
0.0
 11
41.40788617689304
 21
-8.64313728584178
 31
0.0
  0
LINE
  5
F2
330
1F
100
AcDbEntity
  8
0
 62
   178
100
AcDbLine
 10
41.56989714115835
 20
-8.82634234840541
 30
0.0
 11
41.45315078846178
 21
-8.701421007062974
 31
0.0
  0
LINE
  5
F3
330
1F
100
AcDbEntity
  8
0
 62
   178
100
AcDbLine
 10
41.61531085150693
 20
-8.884805598927937
 30
0.0
 11
41.56989714115835
 21
-8.82634234840541
 31
0.0
  0
LINE
  5
F4
330
1F
100
AcDbEntity
  8
0
 62
   178
100
AcDbLine
 10
41.64333324295792
 20
-8.944249469463779
 30
0.0
 11
41.61531085150693
 21
-8.884805598927937
 31
0.0
  0
LINE
  5
F5
330
1F
100
AcDbEntity
  8
0
 62
   178
100
AcDbLine
 10
41.65345892068888
 20
-9.00365817673675
 30
0.0
 11
41.64333324295792
 21
-8.944249469463779
 31
0.0
  0
LINE
  5
F6
330
1F
100
AcDbEntity
  8
0
 62
   178
100
AcDbLine
 10
41.6454877702791
 20
-9.062013519206191
 30
0.0
 11
41.65345892068888
 21
-9.00365817673675
 31
0.0
  0
LINE
  5
F7
330
1F
100
AcDbEntity
  8
0
 62
   178
100
AcDbLine
 10
41.61953021354266
 20
-9.118312407604536
 30
0.0
 11
41.6454877702791
 21
-9.062013519206191
 31
0.0
  0
LINE
  5
F8
330
1F
100
AcDbEntity
  8
0
 62
   178
100
AcDbLine
 10
41.57600709646697
 20
-9.17158433644128
 30
0.0
 11
41.61953021354266
 21
-9.118312407604536
 31
0.0
  0
LINE
  5
F9
330
1F
100
AcDbEntity
  8
0
 62
   178
100
AcDbLine
 10
41.51564408890159
 20
-9.22090847743856
 30
0.0
 11
41.57600709646697
 21
-9.17158433644128
 31
0.0
  0
LINE
  5
FA
330
1F
100
AcDbEntity
  8
0
 62
   178
100
AcDbLine
 10
41.43946058078425
 20
-9.265430069789225
 30
0.0
 11
41.51564408890159
 21
-9.22090847743856
 31
0.0
  0
LINE
  5
FB
330
1F
100
AcDbEntity
  8
0
 62
   178
100
AcDbLine
 10
41.34875317295833
 20
-9.304375783745497
 30
0.0
 11
41.43946058078425
 21
-9.265430069789225
 31
0.0
  0
LINE
  5
FC
330
1F
100
AcDbEntity
  8
0
 62
   178
100
AcDbLine
 10
41.2450739788694
 20
-9.337067744100008
 30
0.0
 11
41.34875317295833
 21
-9.304375783745497
 31
0.0
  0
LINE
  5
FD
330
1F
100
AcDbEntity
  8
0
 62
   178
100
AcDbLine
 10
41.13020407287311
 20
-9.362935919018236
 30
0.0
 11
41.2450739788694
 21
-9.337067744100008
 31
0.0
  0
LINE
  5
FE
330
1F
100
AcDbEntity
  8
0
 62
   178
100
AcDbLine
 10
41.00612253737218
 20
-9.381528607437406
 30
0.0
 11
41.13020407287311
 21
-9.362935919018236
 31
0.0
  0
LINE
  5
FF
330
1F
100
AcDbEntity
  8
0
 62
   178
100
AcDbLine
 10
41.00612253737218
 20
-9.381528607437406
 30
0.0
 11
40.46808925797426
 21
-9.44389610744675
 31
0.0
  0
LINE
  5
100
330
1F
100
AcDbEntity
  8
0
 62
   178
100
AcDbLine
 10
40.40824259857614
 20
-9.455028062272659
 30
0.0
 11
40.46808925797426
 21
-9.44389610744675
 31
0.0
  0
LINE
  5
101
330
1F
100
AcDbEntity
  8
0
 62
   178
100
AcDbLine
 10
40.38223123341319
 20
-9.463219955071969
 30
0.0
 11
40.40824259857614
 21
-9.455028062272659
 31
0.0
  0
LINE
  5
102
330
1F
100
AcDbEntity
  8
0
 62
   178
100
AcDbLine
 10
40.35943632978092
 20
-9.472986205572296
 30
0.0
 11
40.38223123341319
 21
-9.463219955071969
 31
0.0
  0
LINE
  5
103
330
1F
100
AcDbEntity
  8
0
 62
   178
100
AcDbLine
 10
40.34024789893871
 20
-9.48416043475108
 30
0.0
 11
40.35943632978092
 21
-9.472986205572296
 31
0.0
  0
LINE
  5
104
330
1F
100
AcDbEntity
  8
0
 62
   178
100
AcDbLine
 10
40.32499468281844
 20
-9.496552177690528
 30
0.0
 11
40.34024789893871
 21
-9.48416043475108
 31
0.0
  0
LINE
  5
105
330
1F
100
AcDbEntity
  8
0
 62
   178
100
AcDbLine
 10
40.31393850060142
 20
-9.509950092857215
 30
0.0
 11
40.32499468281844
 21
-9.496552177690528
 31
0.0
  0
LINE
  5
106
330
1F
100
AcDbEntity
  8
0
 62
   178
100
AcDbLine
 10
40.30726971246006
 20
-9.524125531585506
 30
0.0
 11
40.31393850060142
 21
-9.509950092857215
 31
0.0
  0
LINE
  5
107
330
1F
100
AcDbEntity
  8
0
 62
   178
100
AcDbLine
 10
40.30510388188781
 20
-9.538836409863597
 30
0.0
 11
40.30726971246006
 21
-9.524125531585506
 31
0.0
  0
LINE
  5
108
330
1F
100
AcDbEntity
  8
0
 62
   178
100
AcDbLine
 10
40.30747969917633
 20
-9.553831318934547
 30
0.0
 11
40.30510388188781
 21
-9.538836409863597
 31
0.0
  0
LINE
  5
109
330
1F
100
AcDbEntity
  8
0
 62
   178
100
AcDbLine
 10
40.32562335797688
 20
-9.58364675693444
 30
0.0
 11
40.30747969917633
 21
-9.553831318934547
 31
0.0
  0
LINE
  5
10A
330
1F
100
AcDbEntity
  8
0
 62
   178
100
AcDbLine
 10
42.10745031512646
 20
-11.52401296782896
 30
0.0
 11
40.32562335797688
 21
-9.58364675693444
 31
0.0
  0
LINE
  5
10B
330
1F
100
AcDbEntity
  8
0
 62
   178
100
AcDbLine
 10
42.10745031512646
 20
-11.52401296782896
 30
0.0
 11
69.54100159091604
 21
-8.283665349061522
 31
0.0
  0
LINE
  5
10C
330
1F
100
AcDbEntity
  8
0
 62
   178
100
AcDbLine
 10
69.54100159091604
 20
-8.283665349061522
 30
0.0
 11
67.38072218843341
 21
-6.444262322312537
 31
0.0
  0
LINE
  5
10D
330
1F
100
AcDbEntity
  8
0
 62
   178
100
AcDbLine
 10
67.38072218843341
 20
-6.444262322312537
 30
0.0
 11
67.33962864467058
 21
-6.418292035697512
 31
0.0
  0
LINE
  5
10E
330
1F
100
AcDbEntity
  8
0
 62
   178
100
AcDbLine
 10
67.33962864467058
 20
-6.418292035697512
 30
0.0
 11
67.31428829588559
 21
-6.406564834182072
 31
0.0
  0
LINE
  5
10F
330
1F
100
AcDbEntity
  8
0
 62
   178
100
AcDbLine
 10
67.31428829588559
 20
-6.406564834182072
 30
0.0
 11
67.28627184103871
 21
-6.395928074880851
 31
0.0
  0
LINE
  5
110
330
1F
100
AcDbEntity
  8
0
 62
   178
100
AcDbLine
 10
67.28627184103871
 20
-6.395928074880851
 30
0.0
 11
67.25602311068717
 21
-6.38654969079137
 31
0.0
  0
LINE
  5
111
330
1F
100
AcDbEntity
  8
0
 62
   178
100
AcDbLine
 10
67.25602311068717
 20
-6.38654969079137
 30
0.0
 11
67.22402093367197
 21
-6.378577671867365
 31
0.0
  0
LINE
  5
112
330
1F
100
AcDbEntity
  8
0
 62
   178
100
AcDbLine
 10
67.22402093367197
 20
-6.378577671867365
 30
0.0
 11
67.19077158353878
 21
-6.372137759890665
 31
0.0
  0
LINE
  5
113
330
1F
100
AcDbEntity
  8
0
 62
   178
100
AcDbLine
 10
67.19077158353878
 20
-6.372137759890665
 30
0.0
 11
67.15680081163968
 21
-6.367331493402879
 31
0.0
  0
LINE
  5
114
330
1F
100
AcDbEntity
  8
0
 62
   178
100
AcDbLine
 10
67.15680081163968
 20
-6.367331493402879
 30
0.0
 11
67.12264558960763
 21
-6.36423463131475
 31
0.0
  0
LINE
  5
115
330
1F
100
AcDbEntity
  8
0
 62
   178
100
AcDbLine
 10
62.60429105822415
 20
-7.450110924804736
 30
0.0
 11
62.74056840098387
 21
-7.543375842152559
 31
0.0
  0
LINE
  5
116
330
1F
100
AcDbEntity
  8
0
 62
   178
100
AcDbLine
 10
62.52377541123174
 20
-7.350529123439854
 30
0.0
 11
62.60429105822415
 21
-7.450110924804736
 31
0.0
  0
LINE
  5
117
330
1F
100
AcDbEntity
  8
0
 62
   178
100
AcDbLine
 10
62.50436984464194
 20
-7.251431620737006
 30
0.0
 11
62.52377541123174
 21
-7.350529123439854
 31
0.0
  0
LINE
  5
118
330
1F
100
AcDbEntity
  8
0
 62
   178
100
AcDbLine
 10
62.54724277780853
 20
-7.159553128234504
 30
0.0
 11
62.50436984464194
 21
-7.251431620737006
 31
0.0
  0
LINE
  5
119
330
1F
100
AcDbEntity
  8
0
 62
   178
100
AcDbLine
 10
62.64934424937768
 20
-7.08110803205771
 30
0.0
 11
62.54724277780853
 21
-7.159553128234504
 31
0.0
  0
LINE
  5
11A
330
1F
100
AcDbEntity
  8
0
 62
   178
100
AcDbLine
 10
62.80364787317452
 20
-7.021379525028701
 30
0.0
 11
62.64934424937768
 21
-7.08110803205771
 31
0.0
  0
LINE
  5
11B
330
1F
100
AcDbEntity
  8
0
 62
   178
100
AcDbLine
 10
62.99964768810064
 20
-6.984376315218729
 30
0.0
 11
62.80364787317452
 21
-7.021379525028701
 31
0.0
  0
LINE
  5
11C
330
1F
100
AcDbEntity
  8
0
 62
   178
100
AcDbLine
 10
63.22407138975348
 20
-6.972575849485227
 30
0.0
 11
62.99964768810064
 21
-6.984376315218729
 31
0.0
  0
LINE
  5
11D
330
1F
100
AcDbEntity
  8
0
 62
   178
100
AcDbLine
 10
63.46176216676461
 20
-6.986767223592758
 30
0.0
 11
63.22407138975348
 21
-6.972575849485227
 31
0.0
  0
LINE
  5
11E
330
1F
100
AcDbEntity
  8
0
 62
   178
100
AcDbLine
 10
63.69667507859636
 20
-7.026001404782816
 30
0.0
 11
63.46176216676461
 21
-6.986767223592758
 31
0.0
  0
LINE
  5
11F
330
1F
100
AcDbEntity
  8
0
 62
   178
100
AcDbLine
 10
63.91292971474303
 20
-7.087651113461915
 30
0.0
 11
63.69667507859636
 21
-7.026001404782816
 31
0.0
  0
LINE
  5
120
330
1F
100
AcDbEntity
  8
0
 62
   178
100
AcDbLine
 10
64.09585815111656
 20
-7.167577536867416
 30
0.0
 11
63.91292971474303
 21
-7.087651113461915
 31
0.0
  0
LINE
  5
121
330
1F
100
AcDbEntity
  8
0
 62
   178
100
AcDbLine
 10
64.23298587054268
 20
-7.26039574821551
 30
0.0
 11
64.09585815111656
 21
-7.167577536867416
 31
0.0
  0
LINE
  5
122
330
1F
100
AcDbEntity
  8
0
 62
   178
100
AcDbLine
 10
64.31488383692758
 20
-7.359825132692662
 30
0.0
 11
64.23298587054268
 21
-7.26039574821551
 31
0.0
  0
LINE
  5
123
330
1F
100
AcDbEntity
  8
0
 62
   178
100
AcDbLine
 10
64.33583327870328
 20
-7.459105346489176
 30
0.0
 11
64.31488383692758
 21
-7.359825132692662
 31
0.0
  0
LINE
  5
124
330
1F
100
AcDbEntity
  8
0
 62
   178
100
AcDbLine
 10
64.29425210187298
 20
-7.551452722093265
 30
0.0
 11
64.33583327870328
 21
-7.459105346489176
 31
0.0
  0
LINE
  5
125
330
1F
100
AcDbEntity
  8
0
 62
   178
100
AcDbLine
 10
64.19284414375741
 20
-7.630527238960277
 30
0.0
 11
64.29425210187298
 21
-7.551452722093265
 31
0.0
  0
LINE
  5
126
330
1F
100
AcDbEntity
  8
0
 62
   178
100
AcDbLine
 10
64.03844995972936
 20
-7.690877052615111
 30
0.0
 11
64.19284414375741
 21
-7.630527238960277
 31
0.0
  0
LINE
  5
127
330
1F
100
AcDbEntity
  8
0
 62
   178
100
AcDbLine
 10
63.84159977096163
 20
-7.728326975061342
 30
0.0
 11
64.03844995972936
 21
-7.690877052615111
 31
0.0
  0
LINE
  5
128
330
1F
100
AcDbEntity
  8
0
 62
   178
100
AcDbLine
 10
63.61579373780706
 20
-7.740279860722252
 30
0.0
 11
63.84159977096163
 21
-7.728326975061342
 31
0.0
  0
LINE
  5
129
330
1F
100
AcDbEntity
  8
0
 62
   178
100
AcDbLine
 10
63.37655907067591
 20
-7.725905771924207
 30
0.0
 11
63.61579373780706
 21
-7.740279860722252
 31
0.0
  0
LINE
  5
12A
330
1F
100
AcDbEntity
  8
0
 62
   178
100
AcDbLine
 10
63.14035439968298
 20
-7.686202700996031
 30
0.0
 11
63.37655907067591
 21
-7.725905771924207
 31
0.0
  0
LINE
  5
12B
330
1F
100
AcDbEntity
  8
0
 62
   178
100
AcDbLine
 10
62.92340626219202
 20
-7.623923568587032
 30
0.0
 11
63.14035439968298
 21
-7.686202700996031
 31
0.0
  0
LINE
  5
12C
330
1F
100
AcDbEntity
  8
0
 62
   178
100
AcDbLine
 10
62.74056840098387
 20
-7.543375842152559
 30
0.0
 11
62.92340626219202
 21
-7.623923568587032
 31
0.0
  0
LINE
  5
12D
330
1F
100
AcDbEntity
  8
0
 62
   178
100
AcDbLine
 10
46.0604573124909
 20
-9.75484574003303
 30
0.0
 11
45.88922586662533
 21
-9.815121315809407
 31
0.0
  0
LINE
  5
12E
330
1F
100
AcDbEntity
  8
0
 62
   178
100
AcDbLine
 10
45.88922586662533
 20
-9.815121315809407
 30
0.0
 11
45.67968959462722
 21
-9.851313315640997
 31
0.0
  0
LINE
  5
12F
330
1F
100
AcDbEntity
  8
0
 62
   178
100
AcDbLine
 10
45.67968959462722
 20
-9.851313315640997
 30
0.0
 11
45.44623014247791
 21
-9.860910587617802
 31
0.0
  0
LINE
  5
130
330
1F
100
AcDbEntity
  8
0
 62
   178
100
AcDbLine
 10
45.44623014247791
 20
-9.860910587617802
 30
0.0
 11
45.2049069048396
 21
-9.84324649654156
 31
0.0
  0
LINE
  5
131
330
1F
100
AcDbEntity
  8
0
 62
   178
100
AcDbLine
 10
45.2049069048396
 20
-9.84324649654156
 30
0.0
 11
44.97232224907092
 21
-9.799547767342997
 31
0.0
  0
LINE
  5
132
330
1F
100
AcDbEntity
  8
0
 62
   178
100
AcDbLine
 10
44.97232224907092
 20
-9.799547767342997
 30
0.0
 11
44.76444783096611
 21
-9.732844669365884
 31
0.0
  0
LINE
  5
133
330
1F
100
AcDbEntity
  8
0
 62
   178
100
AcDbLine
 10
44.76444783096611
 20
-9.732844669365884
 30
0.0
 11
44.59550348894748
 21
-9.647750368156018
 31
0.0
  0
LINE
  5
134
330
1F
100
AcDbEntity
  8
0
 62
   178
100
AcDbLine
 10
44.59550348894748
 20
-9.647750368156018
 30
0.0
 11
44.47697395010699
 21
-9.550128349360783
 31
0.0
  0
LINE
  5
135
330
1F
100
AcDbEntity
  8
0
 62
   178
100
AcDbLine
 10
44.47697395010699
 20
-9.550128349360783
 30
0.0
 11
44.41683410649737
 21
-9.446675525892802
 31
0.0
  0
LINE
  5
136
330
1F
100
AcDbEntity
  8
0
 62
   178
100
AcDbLine
 10
44.41683410649737
 20
-9.446675525892802
 30
0.0
 11
44.41903335820291
 21
-9.34445409723789
 31
0.0
  0
LINE
  5
137
330
1F
100
AcDbEntity
  8
0
 62
   178
100
AcDbLine
 10
44.41903335820291
 20
-9.34445409723789
 30
0.0
 11
44.48326653438854
 21
-9.250407173643502
 31
0.0
  0
LINE
  5
138
330
1F
100
AcDbEntity
  8
0
 62
   178
100
AcDbLine
 10
44.48326653438854
 20
-9.250407173643502
 30
0.0
 11
44.60503619085677
 21
-9.170891926761069
 31
0.0
  0
LINE
  5
139
330
1F
100
AcDbEntity
  8
0
 62
   178
100
AcDbLine
 10
44.60503619085677
 20
-9.170891926761069
 30
0.0
 11
44.77599098439448
 21
-9.111260320743531
 31
0.0
  0
LINE
  5
13A
330
1F
100
AcDbEntity
  8
0
 62
   178
100
AcDbLine
 10
44.77599098439448
 20
-9.111260320743531
 30
0.0
 11
44.98450869098836
 21
-9.075512234448853
 31
0.0
  0
LINE
  5
13B
330
1F
100
AcDbEntity
  8
0
 62
   178
100
AcDbLine
 10
44.98450869098836
 20
-9.075512234448853
 30
0.0
 11
45.21648058838425
 21
-9.066039870888018
 31
0.0
  0
LINE
  5
13C
330
1F
100
AcDbEntity
  8
0
 62
   178
100
AcDbLine
 10
45.21648058838425
 20
-9.066039870888018
 30
0.0
 11
45.4562458763213
 21
-9.083476395194491
 31
0.0
  0
LINE
  5
13D
330
1F
100
AcDbEntity
  8
0
 62
   178
100
AcDbLine
 10
45.4562458763213
 20
-9.083476395194491
 30
0.0
 11
45.68761964416192
 21
-9.126656060439412
 31
0.0
  0
LINE
  5
13E
330
1F
100
AcDbEntity
  8
0
 62
   178
100
AcDbLine
 10
45.89495469260458
 20
-9.192687682671478
 30
0.0
 11
46.0641757015859
 21
-9.277138018684099
 31
0.0
  0
LINE
  5
13F
330
1F
100
AcDbEntity
  8
0
 62
   178
100
AcDbLine
 10
46.0641757015859
 20
-9.277138018684099
 30
0.0
 11
46.18372380596806
 21
-9.374316131114773
 31
0.0
  0
LINE
  5
140
330
1F
100
AcDbEntity
  8
0
 62
   178
100
AcDbLine
 10
46.18372380596806
 20
-9.374316131114773
 30
0.0
 11
46.24535118983366
 21
-9.477644048777524
 31
0.0
  0
LINE
  5
141
330
1F
100
AcDbEntity
  8
0
 62
   178
100
AcDbLine
 10
46.24535118983366
 20
-9.477644048777524
 30
0.0
 11
46.24470987319454
 21
-9.580093039640612
 31
0.0
  0
LINE
  5
142
330
1F
100
AcDbEntity
  8
0
 62
   178
100
AcDbLine
 10
46.24470987319454
 20
-9.580093039640612
 30
0.0
 11
46.18168758479958
 21
-9.674659020016296
 31
0.0
  0
LINE
  5
143
330
1F
100
AcDbEntity
  8
0
 62
   178
100
AcDbLine
 10
46.18168758479958
 20
-9.674659020016296
 30
0.0
 11
46.0604573124909
 21
-9.75484574003303
 31
0.0
  0
LINE
  5
144
330
1F
100
AcDbEntity
  8
0
 62
   178
100
AcDbLine
 10
47.80027771954325
 20
-6.221290179797917
 30
0.0
 11
47.92233118140773
 21
-6.257233464230851
 31
0.0
  0
LINE
  5
145
330
1F
100
AcDbEntity
  8
0
 62
   178
100
AcDbLine
 10
48.29781553700098
 20
-5.875406025265318
 30
0.0
 11
48.16328251898042
 21
-5.852658911049983
 31
0.0
  0
LINE
  5
146
330
1F
100
AcDbEntity
  8
0
 62
   178
100
AcDbLine
 10
47.69946326132498
 20
-6.174780112329723
 30
0.0
 11
47.80027771954325
 21
-6.221290179797917
 31
0.0
  0
LINE
  5
147
330
1F
100
AcDbEntity
  8
0
 62
   178
100
AcDbLine
 10
48.60675467798585
 20
-6.179445075047328
 30
0.0
 11
48.63823797151451
 21
-6.126092170807196
 31
0.0
  0
LINE
  5
148
330
1F
100
AcDbEntity
  8
0
 62
   178
100
AcDbLine
 10
48.03367683341054
 20
-6.983155868590117
 30
0.0
 11
47.0273049279323
 21
-5.981073358671585
 31
0.0
  0
LINE
  5
149
330
1F
100
AcDbEntity
  8
0
 62
   178
100
AcDbLine
 10
55.0595889350374
 20
-4.839755805943843
 30
0.0
 11
55.1213551470844
 21
-4.834704870460611
 31
0.0
  0
LINE
  5
14A
330
1F
100
AcDbEntity
  8
0
 62
   178
100
AcDbLine
 10
47.0273049279323
 20
-5.981073358671585
 30
0.0
 11
47.00385116013494
 21
-5.953240220288197
 31
0.0
  0
LINE
  5
14B
330
1F
100
AcDbEntity
  8
0
 62
   178
100
AcDbLine
 10
55.709688379928
 20
-4.963632687272265
 30
0.0
 11
55.7435460979603
 21
-4.989662898644228
 31
0.0
  0
LINE
  5
14C
330
1F
100
AcDbEntity
  8
0
 62
   178
100
AcDbLine
 10
55.66871035357746
 20
-4.938988551019179
 30
0.0
 11
55.709688379928
 21
-4.963632687272265
 31
0.0
  0
LINE
  5
14D
330
1F
100
AcDbEntity
  8
0
 62
   178
100
AcDbLine
 10
55.62130048901403
 20
-4.916140924399842
 30
0.0
 11
55.66871035357746
 21
-4.938988551019179
 31
0.0
  0
LINE
  5
14E
330
1F
100
AcDbEntity
  8
0
 62
   178
100
AcDbLine
 10
55.56825340086402
 20
-4.895469853737064
 30
0.0
 11
55.62130048901403
 21
-4.916140924399842
 31
0.0
  0
LINE
  5
14F
330
1F
100
AcDbEntity
  8
0
 62
   178
100
AcDbLine
 10
55.44887504643156
 20
-4.861989019931908
 30
0.0
 11
55.51045647485892
 21
-4.877318792520957
 31
0.0
  0
LINE
  5
150
330
1F
100
AcDbEntity
  8
0
 62
   178
100
AcDbLine
 10
55.38453637717112
 20
-4.849734764889931
 30
0.0
 11
55.44887504643156
 21
-4.861989019931908
 31
0.0
  0
LINE
  5
151
330
1F
100
AcDbEntity
  8
0
 62
   178
100
AcDbLine
 10
55.31851268836071
 20
-4.840759106237404
 30
0.0
 11
55.38453637717112
 21
-4.849734764889931
 31
0.0
  0
LINE
  5
152
330
1F
100
AcDbEntity
  8
0
 62
   178
100
AcDbLine
 10
55.25190352047219
 20
-4.83521070744354
 30
0.0
 11
55.31851268836071
 21
-4.840759106237404
 31
0.0
  0
LINE
  5
153
330
1F
100
AcDbEntity
  8
0
 62
   178
100
AcDbLine
 10
55.18581769364794
 20
-4.83318143168894
 30
0.0
 11
55.25190352047219
 21
-4.83521070744354
 31
0.0
  0
LINE
  5
154
330
1F
100
AcDbEntity
  8
0
 62
   178
100
AcDbLine
 10
55.1213551470844
 20
-4.834704870460611
 30
0.0
 11
55.18581769364794
 21
-4.83318143168894
 31
0.0
  0
LINE
  5
155
330
1F
100
AcDbEntity
  8
0
 62
   178
100
AcDbLine
 10
47.28825921573969
 20
-5.718387655177763
 30
0.0
 11
55.0595889350374
 21
-4.839755805943843
 31
0.0
  0
LINE
  5
156
330
1F
100
AcDbEntity
  8
0
 62
   178
100
AcDbLine
 10
47.22857404698081
 20
-5.727126254009535
 30
0.0
 11
47.28825921573969
 21
-5.718387655177763
 31
0.0
  0
LINE
  5
157
330
1F
100
AcDbEntity
  8
0
 62
   178
100
AcDbLine
 10
47.17350305858094
 20
-5.739291047547577
 30
0.0
 11
47.22857404698081
 21
-5.727126254009535
 31
0.0
  0
LINE
  5
158
330
1F
100
AcDbEntity
  8
0
 62
   178
100
AcDbLine
 10
47.12398542269363
 20
-5.754675968146591
 30
0.0
 11
47.17350305858094
 21
-5.739291047547577
 31
0.0
  0
LINE
  5
159
330
1F
100
AcDbEntity
  8
0
 62
   178
100
AcDbLine
 10
47.08086683744882
 20
-5.773020214927716
 30
0.0
 11
47.12398542269363
 21
-5.754675968146591
 31
0.0
  0
LINE
  5
15A
330
1F
100
AcDbEntity
  8
0
 62
   178
100
AcDbLine
 10
47.04488516393118
 20
-5.794012550728824
 30
0.0
 11
47.08086683744882
 21
-5.773020214927716
 31
0.0
  0
LINE
  5
15B
330
1F
100
AcDbEntity
  8
0
 62
   178
100
AcDbLine
 10
47.01665779633134
 20
-5.817296448387974
 30
0.0
 11
47.04488516393118
 21
-5.794012550728824
 31
0.0
  0
LINE
  5
15C
330
1F
100
AcDbEntity
  8
0
 62
   178
100
AcDbLine
 10
46.99667098150289
 20
-5.84247601040206
 30
0.0
 11
47.01665779633134
 21
-5.817296448387974
 31
0.0
  0
LINE
  5
15D
330
1F
100
AcDbEntity
  8
0
 62
   178
100
AcDbLine
 10
46.985271278353
 20
-5.869122572908559
 30
0.0
 11
46.99667098150289
 21
-5.84247601040206
 31
0.0
  0
LINE
  5
15E
330
1F
100
AcDbEntity
  8
0
 62
   178
100
AcDbLine
 10
46.98265931794504
 20
-5.896781892545201
 30
0.0
 11
46.985271278353
 21
-5.869122572908559
 31
0.0
  0
LINE
  5
15F
330
1F
100
AcDbEntity
  8
0
 62
   178
100
AcDbLine
 10
47.00385116013494
 20
-5.953240220288197
 30
0.0
 11
46.98888599193437
 21
-5.924981803302824
 31
0.0
  0
LINE
  5
160
330
1F
100
AcDbEntity
  8
0
 62
   178
100
AcDbLine
 10
53.63390046573726
 20
-8.160862513757463
 30
0.0
 11
54.17712242677803
 21
-8.132133551181976
 31
0.0
  0
LINE
  5
161
330
1F
100
AcDbEntity
  8
0
 62
   178
100
AcDbLine
 10
53.06385934688235
 20
-8.126315136071138
 30
0.0
 11
53.63390046573726
 21
-8.160862513757463
 31
0.0
  0
LINE
  5
162
330
1F
100
AcDbEntity
  8
0
 62
   178
100
AcDbLine
 10
52.5067271560459
 20
-8.030951753896534
 30
0.0
 11
53.06385934688235
 21
-8.126315136071138
 31
0.0
  0
LINE
  5
163
330
1F
100
AcDbEntity
  8
0
 62
   178
100
AcDbLine
 10
52.00118905673665
 20
-7.881542485447126
 30
0.0
 11
52.5067271560459
 21
-8.030951753896534
 31
0.0
  0
LINE
  5
164
330
1F
100
AcDbEntity
  8
0
 62
   178
100
AcDbLine
 10
51.5820565378289
 20
-7.688631508404543
 30
0.0
 11
52.00118905673665
 21
-7.881542485447126
 31
0.0
  0
LINE
  5
165
330
1F
100
AcDbEntity
  8
0
 62
   178
100
AcDbLine
 10
51.27779967060586
 20
-7.465719847272684
 30
0.0
 11
51.5820565378289
 21
-7.688631508404543
 31
0.0
  0
LINE
  5
166
330
1F
100
AcDbEntity
  8
0
 62
   178
100
AcDbLine
 10
51.10863547211795
 20
-7.228249737213633
 30
0.0
 11
51.27779967060586
 21
-7.465719847272684
 31
0.0
  0
LINE
  5
167
330
1F
100
AcDbEntity
  8
0
 62
   178
100
AcDbLine
 10
51.08529285630337
 20
-6.992485719357954
 30
0.0
 11
51.10863547211795
 21
-7.228249737213633
 31
0.0
  0
LINE
  5
168
330
1F
100
AcDbEntity
  8
0
 62
   178
100
AcDbLine
 10
51.20849774143227
 20
-6.774386088509021
 30
0.0
 11
51.08529285630337
 21
-6.992485719357954
 31
0.0
  0
LINE
  5
169
330
1F
100
AcDbEntity
  8
0
 62
   178
100
AcDbLine
 10
51.46915426479705
 20
-6.588546030892648
 30
0.0
 11
51.20849774143227
 21
-6.774386088509021
 31
0.0
  0
LINE
  5
16A
330
1F
100
AcDbEntity
  8
0
 62
   178
100
AcDbLine
 10
51.84914859077386
 20
-6.44727535171044
 30
0.0
 11
51.46915426479705
 21
-6.588546030892648
 31
0.0
  0
LINE
  5
16B
330
1F
100
AcDbEntity
  8
0
 62
   178
100
AcDbLine
 10
52.32267332044233
 20
-6.359853934539959
 30
0.0
 11
51.84914859077386
 21
-6.44727535171044
 31
0.0
  0
LINE
  5
16C
330
1F
100
AcDbEntity
  8
0
 62
   178
100
AcDbLine
 10
52.85796041629301
 20
-6.331990829959398
 30
0.0
 11
52.32267332044233
 21
-6.359853934539959
 31
0.0
  0
LINE
  5
16D
330
1F
100
AcDbEntity
  8
0
 62
   178
100
AcDbLine
 10
53.4193126411974
 20
-6.365500253600442
 30
0.0
 11
52.85796041629301
 21
-6.331990829959398
 31
0.0
  0
LINE
  5
16E
330
1F
100
AcDbEntity
  8
0
 62
   178
100
AcDbLine
 10
53.96933026449379
 20
-6.458200031163326
 30
0.0
 11
53.4193126411974
 21
-6.365500253600442
 31
0.0
  0
LINE
  5
16F
330
1F
100
AcDbEntity
  8
0
 62
   178
100
AcDbLine
 10
54.47123449193833
 20
-6.604033833600021
 30
0.0
 11
53.96933026449379
 21
-6.458200031163326
 31
0.0
  0
LINE
  5
170
330
1F
100
AcDbEntity
  8
0
 62
   178
100
AcDbLine
 10
54.89118738127832
 20
-6.793415562392161
 30
0.0
 11
54.47123449193833
 21
-6.604033833600021
 31
0.0
  0
LINE
  5
171
330
1F
100
AcDbEntity
  8
0
 62
   178
100
AcDbLine
 10
55.2004988705952
 20
-7.013789809729289
 30
0.0
 11
54.89118738127832
 21
-6.793415562392161
 31
0.0
  0
LINE
  5
172
330
1F
100
AcDbEntity
  8
0
 62
   178
100
AcDbLine
 10
55.37759753429403
 20
-7.250394159971316
 30
0.0
 11
55.2004988705952
 21
-7.013789809729289
 31
0.0
  0
LINE
  5
173
330
1F
100
AcDbEntity
  8
0
 62
   178
100
AcDbLine
 10
55.40962857128773
 20
-7.487196015698475
 30
0.0
 11
55.37759753429403
 21
-7.250394159971316
 31
0.0
  0
LINE
  5
174
330
1F
100
AcDbEntity
  8
0
 62
   178
100
AcDbLine
 10
55.29353818090665
 20
-7.70795903680742
 30
0.0
 11
55.40962857128773
 21
-7.487196015698475
 31
0.0
  0
LINE
  5
175
330
1F
100
AcDbEntity
  8
0
 62
   178
100
AcDbLine
 10
55.03651592938571
 20
-7.897374462258603
 30
0.0
 11
55.29353818090665
 21
-7.70795903680742
 31
0.0
  0
LINE
  5
176
330
1F
100
AcDbEntity
  8
0
 62
   178
100
AcDbLine
 10
54.65570170574806
 20
-8.042174505865058
 30
0.0
 11
55.03651592938571
 21
-7.897374462258603
 31
0.0
  0
LINE
  5
177
330
1F
100
AcDbEntity
  8
0
 62
   178
100
AcDbLine
 10
54.17712242677803
 20
-8.132133551181976
 30
0.0
 11
54.65570170574806
 21
-8.042174505865058
 31
0.0
  0
LINE
  5
178
330
1F
100
AcDbEntity
  8
0
 62
   178
100
AcDbLine
 10
55.1616915932189
 20
-5.496171993797225
 30
0.0
 11
55.29325434609086
 21
-5.489495612006283
 31
0.0
  0
LINE
  5
179
330
1F
100
AcDbEntity
  8
0
 62
   178
100
AcDbLine
 10
54.58711113987654
 20
-5.330441251092034
 30
0.0
 11
54.66227116002579
 21
-5.383645405740458
 31
0.0
  0
LINE
  5
17A
330
1F
100
AcDbEntity
  8
0
 62
   178
100
AcDbLine
 10
54.53749681870431
 20
-5.21708675670135
 30
0.0
 11
54.54456901392504
 21
-5.273629532804272
 31
0.0
  0
LINE
  5
17B
330
1F
100
AcDbEntity
  8
0
 62
   178
100
AcDbLine
 10
54.56632498824349
 20
-5.164660010653641
 30
0.0
 11
54.53749681870431
 21
-5.21708675670135
 31
0.0
  0
LINE
  5
17C
330
1F
100
AcDbEntity
  8
0
 62
   178
100
AcDbLine
 10
54.62904681230611
 20
-5.11990647788774
 30
0.0
 11
54.56632498824349
 21
-5.164660010653641
 31
0.0
  0
LINE
  5
17D
330
1F
100
AcDbEntity
  8
0
 62
   178
100
AcDbLine
 10
54.72136642491763
 20
-5.085855212625657
 30
0.0
 11
54.62904681230611
 21
-5.11990647788774
 31
0.0
  0
LINE
  5
17E
330
1F
100
AcDbEntity
  8
0
 62
   178
100
AcDbLine
 10
54.83699725759992
 20
-5.064806284627822
 30
0.0
 11
54.72136642491763
 21
-5.085855212625657
 31
0.0
  0
LINE
  5
17F
330
1F
100
AcDbEntity
  8
0
 62
   178
100
AcDbLine
 10
54.96808912543033
 20
-5.058179494404669
 30
0.0
 11
54.83699725759992
 21
-5.064806284627822
 31
0.0
  0
LINE
  5
180
330
1F
100
AcDbEntity
  8
0
 62
   178
100
AcDbLine
 10
55.10575521587663
 20
-5.066421519115318
 30
0.0
 11
54.96808912543033
 21
-5.058179494404669
 31
0.0
  0
LINE
  5
181
330
1F
100
AcDbEntity
  8
0
 62
   178
100
AcDbLine
 10
55.24066519918612
 20
-5.088976784206137
 30
0.0
 11
55.10575521587663
 21
-5.066421519115318
 31
0.0
  0
LINE
  5
182
330
1F
100
AcDbEntity
  8
0
 62
   178
100
AcDbLine
 10
55.36366736360554
 20
-5.124323699205943
 30
0.0
 11
55.24066519918612
 21
-5.088976784206137
 31
0.0
  0
LINE
  5
183
330
1F
100
AcDbEntity
  8
0
 62
   178
100
AcDbLine
 10
55.46640101819079
 20
-5.170074217834386
 30
0.0
 11
55.36366736360554
 21
-5.124323699205943
 31
0.0
  0
LINE
  5
184
330
1F
100
AcDbEntity
  8
0
 62
   178
100
AcDbLine
 10
55.54186043091021
 20
-5.223131031737919
 30
0.0
 11
55.46640101819079
 21
-5.170074217834386
 31
0.0
  0
LINE
  5
185
330
1F
100
AcDbEntity
  8
0
 62
   178
100
AcDbLine
 10
55.58487344049114
 20
-5.279893158791851
 30
0.0
 11
55.54186043091021
 21
-5.223131031737919
 31
0.0
  0
LINE
  5
186
330
1F
100
AcDbEntity
  8
0
 62
   178
100
AcDbLine
 10
55.5015518614593
 20
-5.434042466158798
 30
0.0
 11
55.56405687411041
 21
-5.389080146154467
 31
0.0
  0
LINE
  5
187
330
1F
100
AcDbEntity
  8
0
 62
   178
100
AcDbLine
 10
55.29325434609086
 20
-5.489495612006283
 30
0.0
 11
55.40918457109104
 21
-5.468299342522106
 31
0.0
  0
LINE
  5
188
330
1F
100
AcDbEntity
  8
0
 62
   178
100
AcDbLine
 10
48.63371795557686
 20
-6.068695130097152
 30
0.0
 11
48.59355463652736
 21
-6.011171566704067
 31
0.0
  0
LINE
  5
189
330
1F
100
AcDbEntity
  8
0
 62
   178
100
AcDbLine
 10
48.54137140093923
 20
-6.225102117062169
 30
0.0
 11
48.60675467798585
 21
-6.179445075047328
 31
0.0
  0
LINE
  5
18A
330
1F
100
AcDbEntity
  8
0
 62
   178
100
AcDbLine
 10
48.32867847169621
 20
-6.281535797236764
 30
0.0
 11
48.44652282242789
 21
-6.259930546431209
 31
0.0
  0
LINE
  5
18B
330
1F
100
AcDbEntity
  8
0
 62
   178
100
AcDbLine
 10
48.19590032625361
 20
-6.288430342255182
 30
0.0
 11
48.32867847169621
 21
-6.281535797236764
 31
0.0
  0
LINE
  5
18C
330
1F
100
AcDbEntity
  8
0
 62
   178
100
AcDbLine
 10
48.057285058369
 20
-6.28013915216609
 30
0.0
 11
48.19590032625361
 21
-6.288430342255182
 31
0.0
  0
LINE
  5
18D
330
1F
100
AcDbEntity
  8
0
 62
   178
100
AcDbLine
 10
47.626752128315
 20
-6.120893864897863
 30
0.0
 11
47.69946326132498
 21
-6.174780112329723
 31
0.0
  0
LINE
  5
18E
330
1F
100
AcDbEntity
  8
0
 62
   178
100
AcDbLine
 10
47.58706824780189
 20
-6.063318755091936
 30
0.0
 11
47.626752128315
 21
-6.120893864897863
 31
0.0
  0
LINE
  5
18F
330
1F
100
AcDbEntity
  8
0
 62
   178
100
AcDbLine
 10
47.61497217060502
 20
-5.952789174807778
 30
0.0
 11
47.58306801836508
 21
-6.005983506095451
 31
0.0
  0
LINE
  5
190
330
1F
100
AcDbEntity
  8
0
 62
   178
100
AcDbLine
 10
47.68056460990549
 20
-5.907344997770643
 30
0.0
 11
47.61497217060502
 21
-5.952789174807778
 31
0.0
  0
LINE
  5
191
330
1F
100
AcDbEntity
  8
0
 62
   178
100
AcDbLine
 10
47.77535460882117
 20
-5.872726688534351
 30
0.0
 11
47.68056460990549
 21
-5.907344997770643
 31
0.0
  0
LINE
  5
192
330
1F
100
AcDbEntity
  8
0
 62
   178
100
AcDbLine
 10
47.89288833384388
 20
-5.851272511344455
 30
0.0
 11
47.77535460882117
 21
-5.872726688534351
 31
0.0
  0
LINE
  5
193
330
1F
100
AcDbEntity
  8
0
 62
   178
100
AcDbLine
 10
48.02518703928808
 20
-5.844429513090388
 30
0.0
 11
47.89288833384388
 21
-5.851272511344455
 31
0.0
  0
LINE
  5
194
330
1F
100
AcDbEntity
  8
0
 62
   178
100
AcDbLine
 10
48.16328251898042
 20
-5.852658911049983
 30
0.0
 11
48.02518703928808
 21
-5.844429513090388
 31
0.0
  0
LINE
  5
195
330
1F
100
AcDbEntity
  8
0
 62
   178
100
AcDbLine
 10
48.41965983807361
 20
-5.911136444369038
 30
0.0
 11
48.29781553700098
 21
-5.875406025265318
 31
0.0
  0
LINE
  5
196
330
1F
100
AcDbEntity
  8
0
 62
   178
100
AcDbLine
 10
48.52053287757899
 20
-5.95743639212042
 30
0.0
 11
48.41965983807361
 21
-5.911136444369038
 31
0.0
  0
LINE
  5
197
330
1F
100
AcDbEntity
  8
0
 62
   178
100
AcDbLine
 10
51.89241279039397
 20
-9.272035676504709
 30
0.0
 11
51.84959520248172
 21
-9.211300604705208
 31
0.0
  0
LINE
  5
198
330
1F
100
AcDbEntity
  8
0
 62
   178
100
AcDbLine
 10
51.89859904890034
 20
-9.332626739034856
 30
0.0
 11
51.89241279039397
 21
-9.272035676504709
 31
0.0
  0
LINE
  5
199
330
1F
100
AcDbEntity
  8
0
 62
   178
100
AcDbLine
 10
51.86767735001587
 20
-9.388937961729173
 30
0.0
 11
51.89859904890034
 21
-9.332626739034856
 31
0.0
  0
LINE
  5
19A
330
1F
100
AcDbEntity
  8
0
 62
   178
100
AcDbLine
 10
51.80170997406734
 20
-9.43711464969912
 30
0.0
 11
51.86767735001587
 21
-9.388937961729173
 31
0.0
  0
LINE
  5
19B
330
1F
100
AcDbEntity
  8
0
 62
   178
100
AcDbLine
 10
51.70516967817959
 20
-9.473850527723437
 30
0.0
 11
51.80170997406734
 21
-9.43711464969912
 31
0.0
  0
LINE
  5
19C
330
1F
100
AcDbEntity
  8
0
 62
   178
100
AcDbLine
 10
51.58464106152488
 20
-9.49661926245717
 30
0.0
 11
51.70516967817959
 21
-9.473850527723437
 31
0.0
  0
LINE
  5
19D
330
1F
100
AcDbEntity
  8
0
 62
   178
100
AcDbLine
 10
51.44837038615899
 20
-9.503852775515703
 30
0.0
 11
51.58464106152488
 21
-9.49661926245717
 31
0.0
  0
LINE
  5
19E
330
1F
100
AcDbEntity
  8
0
 62
   178
100
AcDbLine
 10
51.30569490068201
 20
-9.495052532809238
 30
0.0
 11
51.44837038615899
 21
-9.503852775515703
 31
0.0
  0
LINE
  5
19F
330
1F
100
AcDbEntity
  8
0
 62
   178
100
AcDbLine
 10
51.16639289981728
 20
-9.470825024423165
 30
0.0
 11
51.30569490068201
 21
-9.495052532809238
 31
0.0
  0
LINE
  5
1A0
330
1F
100
AcDbEntity
  8
0
 62
   178
100
AcDbLine
 10
51.04000249577591
 20
-9.432838607907646
 30
0.0
 11
51.16639289981728
 21
-9.470825024423165
 31
0.0
  0
LINE
  5
1A1
330
1F
100
AcDbEntity
  8
0
 62
   178
100
AcDbLine
 10
50.93515954389825
 20
-9.383705152163564
 30
0.0
 11
51.04000249577591
 21
-9.432838607907646
 31
0.0
  0
LINE
  5
1A2
330
1F
100
AcDbEntity
  8
0
 62
   178
100
AcDbLine
 10
50.85900309526793
 20
-9.326795812118792
 30
0.0
 11
50.93515954389825
 21
-9.383705152163564
 31
0.0
  0
LINE
  5
1A3
330
1F
100
AcDbEntity
  8
0
 62
   178
100
AcDbLine
 10
50.81669049926896
 20
-9.266005173501416
 30
0.0
 11
50.85900309526793
 21
-9.326795812118792
 31
0.0
  0
LINE
  5
1A4
330
1F
100
AcDbEntity
  8
0
 62
   178
100
AcDbLine
 10
50.81105473429913
 20
-9.205481485453417
 30
0.0
 11
50.81669049926896
 21
-9.266005173501416
 31
0.0
  0
LINE
  5
1A5
330
1F
100
AcDbEntity
  8
0
 62
   178
100
AcDbLine
 10
50.84242492473882
 20
-9.149342525778373
 30
0.0
 11
50.81105473429913
 21
-9.205481485453417
 31
0.0
  0
LINE
  5
1A6
330
1F
100
AcDbEntity
  8
0
 62
   178
100
AcDbLine
 10
50.90861861741128
 20
-9.101396831949573
 30
0.0
 11
50.84242492473882
 21
-9.149342525778373
 31
0.0
  0
LINE
  5
1A7
330
1F
100
AcDbEntity
  8
0
 62
   178
100
AcDbLine
 10
51.0051024132144
 20
-9.064888784641191
 30
0.0
 11
50.90861861741128
 21
-9.101396831949573
 31
0.0
  0
LINE
  5
1A8
330
1F
100
AcDbEntity
  8
0
 62
   178
100
AcDbLine
 10
51.125306851434
 20
-9.042283669966645
 30
0.0
 11
51.0051024132144
 21
-9.064888784641191
 31
0.0
  0
LINE
  5
1A9
330
1F
100
AcDbEntity
  8
0
 62
   178
100
AcDbLine
 10
51.2610725332642
 20
-9.035105724126183
 30
0.0
 11
51.125306851434
 21
-9.042283669966645
 31
0.0
  0
LINE
  5
1AA
330
1F
100
AcDbEntity
  8
0
 62
   178
100
AcDbLine
 10
51.40319752330878
 20
-9.04383859187191
 30
0.0
 11
51.2610725332642
 21
-9.035105724126183
 31
0.0
  0
LINE
  5
1AB
330
1F
100
AcDbEntity
  8
0
 62
   178
100
AcDbLine
 10
51.54205103234492
 20
-9.067893836359938
 30
0.0
 11
51.40319752330878
 21
-9.04383859187191
 31
0.0
  0
LINE
  5
1AC
330
1F
100
AcDbEntity
  8
0
 62
   178
100
AcDbLine
 10
51.66821512128478
 20
-9.10564925833411
 30
0.0
 11
51.54205103234492
 21
-9.067893836359938
 31
0.0
  0
LINE
  5
1AD
330
1F
100
AcDbEntity
  8
0
 62
   178
100
AcDbLine
 10
51.77311457514296
 20
-9.154554883840856
 30
0.0
 11
51.66821512128478
 21
-9.10564925833411
 31
0.0
  0
LINE
  5
1AE
330
1F
100
AcDbEntity
  8
0
 62
   178
100
AcDbLine
 10
51.84959520248172
 20
-9.211300604705208
 30
0.0
 11
51.77311457514296
 21
-9.154554883840856
 31
0.0
  0
LINE
  5
1AF
330
1F
100
AcDbEntity
  8
0
 62
   178
100
AcDbLine
 10
58.47661181641947
 20
-8.21256325951704
 30
0.0
 11
58.33593417923219
 21
-8.208040915102908
 31
0.0
  0
LINE
  5
1B0
330
1F
100
AcDbEntity
  8
0
 62
   178
100
AcDbLine
 10
58.61746777806467
 20
-8.232449377182835
 30
0.0
 11
58.47661181641947
 21
-8.21256325951704
 31
0.0
  0
LINE
  5
1B1
330
1F
100
AcDbEntity
  8
0
 62
   178
100
AcDbLine
 10
58.74895182157584
 20
-8.26635849961948
 30
0.0
 11
58.61746777806467
 21
-8.232449377182835
 31
0.0
  0
LINE
  5
1B2
330
1F
100
AcDbEntity
  8
0
 62
   178
100
AcDbLine
 10
58.86213370526312
 20
-8.31200133775903
 30
0.0
 11
58.74895182157584
 21
-8.26635849961948
 31
0.0
  0
LINE
  5
1B3
330
1F
100
AcDbEntity
  8
0
 62
   178
100
AcDbLine
 10
58.94930368240318
 20
-8.366290342521149
 30
0.0
 11
58.86213370526312
 21
-8.31200133775903
 31
0.0
  0
LINE
  5
1B4
330
1F
100
AcDbEntity
  8
0
 62
   178
100
AcDbLine
 10
59.00449694736205
 20
-8.425543985436338
 30
0.0
 11
58.94930368240318
 21
-8.366290342521149
 31
0.0
  0
LINE
  5
1B5
330
1F
100
AcDbEntity
  8
0
 62
   178
100
AcDbLine
 10
59.02390657791604
 20
-8.485732772061523
 30
0.0
 11
59.00449694736205
 21
-8.425543985436338
 31
0.0
  0
LINE
  5
1B6
330
1F
100
AcDbEntity
  8
0
 62
   178
100
AcDbLine
 10
59.00615514182822
 20
-8.54275153294829
 30
0.0
 11
59.02390657791604
 21
-8.485732772061523
 31
0.0
  0
LINE
  5
1B7
330
1F
100
AcDbEntity
  8
0
 62
   178
100
AcDbLine
 10
58.95240322353726
 20
-8.592700069157203
 30
0.0
 11
59.00615514182822
 21
-8.54275153294829
 31
0.0
  0
LINE
  5
1B8
330
1F
100
AcDbEntity
  8
0
 62
   178
100
AcDbLine
 10
58.86628354746994
 20
-8.632152805406124
 30
0.0
 11
58.95240322353726
 21
-8.592700069157203
 31
0.0
  0
LINE
  5
1B9
330
1F
100
AcDbEntity
  8
0
 62
   178
100
AcDbLine
 10
58.7536616192155
 20
-8.658398048570877
 30
0.0
 11
58.86628354746994
 21
-8.632152805406124
 31
0.0
  0
LINE
  5
1BA
330
1F
100
AcDbEntity
  8
0
 62
   178
100
AcDbLine
 10
58.62223695966908
 20
-8.669628985847375
 30
0.0
 11
58.7536616192155
 21
-8.658398048570877
 31
0.0
  0
LINE
  5
1BB
330
1F
100
AcDbEntity
  8
0
 62
   178
100
AcDbLine
 10
58.48101182372333
 20
-8.665071731174796
 30
0.0
 11
58.62223695966908
 21
-8.669628985847375
 31
0.0
  0
LINE
  5
1BC
330
1F
100
AcDbEntity
  8
0
 62
   178
100
AcDbLine
 10
58.33966537077927
 20
-8.645040360915468
 30
0.0
 11
58.48101182372333
 21
-8.665071731174796
 31
0.0
  0
LINE
  5
1BD
330
1F
100
AcDbEntity
  8
0
 62
   178
100
AcDbLine
 10
58.20787927048367
 20
-8.610914564168738
 30
0.0
 11
58.33966537077927
 21
-8.645040360915468
 31
0.0
  0
LINE
  5
1BE
330
1F
100
AcDbEntity
  8
0
 62
   178
100
AcDbLine
 10
58.0946646999751
 20
-8.565041687920075
 30
0.0
 11
58.20787927048367
 21
-8.610914564168738
 31
0.0
  0
LINE
  5
1BF
330
1F
100
AcDbEntity
  8
0
 62
   178
100
AcDbLine
 10
57.9341425673871
 20
-8.391078614381328
 30
0.0
 11
57.95300470117765
 21
-8.451232491000194
 31
0.0
  0
LINE
  5
1C0
330
1F
100
AcDbEntity
  8
0
 62
   178
100
AcDbLine
 10
57.95238449393391
 20
-8.33420510525919
 30
0.0
 11
57.9341425673871
 21
-8.391078614381328
 31
0.0
  0
LINE
  5
1C1
330
1F
100
AcDbEntity
  8
0
 62
   178
100
AcDbLine
 10
58.09259083504805
 20
-8.24525054489591
 30
0.0
 11
58.00643847016439
 21
-8.284473242783589
 31
0.0
  0
LINE
  5
1C2
330
1F
100
AcDbEntity
  8
0
 62
   178
100
AcDbLine
 10
58.20496732332342
 20
-8.219187066034923
 30
0.0
 11
58.09259083504805
 21
-8.24525054489591
 31
0.0
  0
LINE
  5
1C3
330
1F
100
AcDbEntity
  8
0
 62
   178
100
AcDbLine
 10
57.95300470117765
 20
-8.451232491000194
 30
0.0
 11
58.00774016365396
 21
-8.510570919683097
 31
0.0
  0
LINE
  5
1C4
330
1F
100
AcDbEntity
  8
0
 62
   178
100
AcDbLine
 10
54.88817610960871
 20
-5.465157237634823
 30
0.0
 11
55.02350929879086
 21
-5.487868522593035
 31
0.0
  0
LINE
  5
1C5
330
1F
100
AcDbEntity
  8
0
 62
   178
100
AcDbLine
 10
58.33593417923219
 20
-8.208040915102908
 30
0.0
 11
58.20496732332342
 21
-8.219187066034923
 31
0.0
  0
LINE
  5
1C6
330
1F
100
AcDbEntity
  8
0
 62
   178
100
AcDbLine
 10
45.69887583210111
 20
-9.683639696862368
 30
0.0
 11
45.80504131379136
 21
-9.643855891872331
 31
0.0
  0
LINE
  5
1C7
330
1F
100
AcDbEntity
  8
0
 62
   178
100
AcDbLine
 10
45.78888774834804
 20
-9.338193756212489
 30
0.0
 11
45.67818543140559
 21
-9.285336921260619
 31
0.0
  0
LINE
  5
1C8
330
1F
100
AcDbEntity
  8
0
 62
   178
100
AcDbLine
 10
44.96442756869934
 20
-9.241491160667115
 30
0.0
 11
44.85834037639808
 21
-9.281008742979841
 31
0.0
  0
LINE
  5
1C9
330
1F
100
AcDbEntity
  8
0
 62
   178
100
AcDbLine
 10
44.87211251602708
 20
-9.586378694897705
 30
0.0
 11
44.982736541032
 21
-9.6395017518781
 31
0.0
  0
LINE
  5
1CA
330
1F
100
AcDbEntity
  8
0
 62
   178
100
AcDbLine
 10
50.63781970956391
 20
-9.576199270653397
 30
0.0
 11
48.03367683341054
 21
-6.983155868590117
 31
0.0
  0
LINE
  5
1CB
330
1F
100
AcDbEntity
  8
0
 62
   178
100
AcDbLine
 10
56.81957040215295
 20
-5.978271044475581
 30
0.0
 11
55.7435460979603
 21
-4.989662898644228
 31
0.0
  0
ENDSEC
  0
SECTION
  2
OBJECTS
  0
DICTIONARY
  5
C
330
0
100
AcDbDictionary
  3
ACAD_GROUP
350
D
  3
ACAD_LAYOUT
350
1A
  3
ACAD_MATERIAL
350
3B
  3
ACAD_MLEADERSTYLE
350
1EE
  3
ACAD_MLINESTYLE
350
17
  3
ACAD_PLOTSETTINGS
350
19
  3
ACAD_VISUALSTYLE
350
2A
  3
ACDBHEADERROUNDTRIPXREC
350
1CC
  3
ACDBVARIABLEDICTIONARY
350
1EC
  0
DICTIONARY
  5
D
102
{ACAD_REACTORS
330
C
102
}
330
C
100
AcDbDictionary
  0
DICTIONARY
  5
1A
102
{ACAD_REACTORS
330
C
102
}
330
C
100
AcDbDictionary
  0
DICTIONARY
  5
3B
102
{ACAD_REACTORS
330
C
102
}
330
C
100
AcDbDictionary
  3
BYBLOCK
350
3D
  3
BYLAYER
350
3C
  3
GLOBAL
350
3E
  0
DICTIONARY
  5
1EE
102
{ACAD_REACTORS
330
C
102
}
330
C
100
AcDbDictionary
  0
DICTIONARY
  5
17
102
{ACAD_REACTORS
330
C
102
}
330
C
100
AcDbDictionary
  3
STANDARD
350
18
  0
DICTIONARY
  5
19
102
{ACAD_REACTORS
330
C
102
}
330
C
100
AcDbDictionary
  0
DICTIONARY
  5
2A
102
{ACAD_REACTORS
330
C
102
}
330
C
100
AcDbDictionary
  3
2DWIREFRAME
350
2F
  3
3DWIREFRAME
350
30
  3
3D_HIDDEN
350
31
  3
BASIC
350
32
  3
BRIGHTEN
350
36
  3
COLORCHANGE
350
3A
  3
CONCEPTUAL
350
34
  3
DIM
350
35
  3
FACEPATTERN
350
39
  3
FLAT
350
2B
  3
FLATWITHEDGES
350
2C
  3
GOURAUD
350
2D
  3
GOURAUDWITHEDGES
350
2E
  3
LINEPATTERN
350
38
  3
REALISTIC
350
33
  3
THICKEN
350
37
  0
DICTIONARY
  5
1CC
102
{ACAD_REACTORS
330
C
102
}
330
C
100
AcDbDictionary
  3
CEPSNTYPE
350
1D5
  3
DIMSTYLEDATA
350
1EB
  3
FINGERPRINTGUID
350
1D6
  3
HYPERLINKBASE
350
1CF
  3
INSUNITS
350
1D4
  3
LAYOUTDICT
350
1D1
  3
LWETCUNION
350
1D3
  3
PLOTSETDICT
350
1D2
  3
PSVPSCALE
350
1D8
  3
PUCSBASE
350
1DB
  3
PUCSORGBACK
350
1E1
  3
PUCSORGBOTTOM
350
1DD
  3
PUCSORGFRONT
350
1E0
  3
PUCSORGLEFT
350
1DE
  3
PUCSORGRIGHT
350
1DF
  3
PUCSORGTOP
350
1DC
  3
PUCSORTHOREF
350
1D9
  3
PUCSORTHOVIEW
350
1DA
  3
STYLESHEET
350
1D0
  3
TSTACKALIGN
350
1CD
  3
TSTACKSIZE
350
1CE
  3
UCSBASE
350
1E4
  3
UCSORGBACK
350
1EA
  3
UCSORGBOTTOM
350
1E6
  3
UCSORGFRONT
350
1E9
  3
UCSORGLEFT
350
1E7
  3
UCSORGRIGHT
350
1E8
  3
UCSORGTOP
350
1E5
  3
UCSORTHOREF
350
1E2
  3
UCSORTHOVIEW
350
1E3
  3
VERSIONGUID
350
1D7
  0
DICTIONARY
  5
1EC
102
{ACAD_REACTORS
330
C
102
}
330
C
100
AcDbDictionary
  3
DIMASSOC
350
1EF
  3
HIDETEXT
350
1F0
  0
MATERIAL
  5
3D
102
{ACAD_REACTORS
330
3B
102
}
102
{ACAD_XDICTIONARY
360
1F3
102
}
330
3B
100
AcDbMaterial
  1
ByBlock
  0
MATERIAL
  5
3C
102
{ACAD_REACTORS
330
3B
102
}
102
{ACAD_XDICTIONARY
360
1F1
102
}
330
3B
100
AcDbMaterial
  1
ByLayer
  0
MATERIAL
  5
3E
102
{ACAD_REACTORS
330
3B
102
}
102
{ACAD_XDICTIONARY
360
1F5
102
}
330
3B
100
AcDbMaterial
  1
Global
  0
MLINESTYLE
  5
18
102
{ACAD_REACTORS
330
17
102
}
330
17
100
AcDbMlineStyle
  2
Standard
 70
     0
  3

 62
   256
 51
90.0
 52
90.0
 71
     2
 49
0.5
 62
   256
  6
BYLAYER
 49
-0.5
 62
   256
  6
BYLAYER
  0
ACAD_PROXY_OBJECT
  5
2F
102
{ACAD_REACTORS
330
2A
102
}
330
2A
100
AcDbProxyObject
 90
      499
 91
      501
 93
      436
310
42CC9915DA5C99599C985B595049028333333333333E3BF0000000000000FB0107901411070040501600405405064090741402480A0340
1001
ACAD
1000
AcDbSavedByObjectVersion
1070
     0
  0
ACAD_PROXY_OBJECT
  5
30
102
{ACAD_REACTORS
330
2A
102
}
330
2A
100
AcDbProxyObject
 90
      499
 91
      501
 93
      436
310
42CCD915DA5C99599C985B595059028333333333333E3BF0000000000000FB0107901411070040501600405405064090741402480A0340
1001
ACAD
1000
AcDbSavedByObjectVersion
1070
     0
  0
ACAD_PROXY_OBJECT
  5
31
102
{ACAD_REACTORS
330
2A
102
}
330
2A
100
AcDbProxyObject
 90
      499
 91
      501
 93
      500
310
424CD108121A5919195B90640502408333333333333E3BF0000000000000FB01079024090700405020000000000001110200405405064090740C02480A0340
1001
ACAD
1000
AcDbSavedByObjectVersion
1070
     0
  0
ACAD_PROXY_OBJECT
  5
32
102
{ACAD_REACTORS
330
2A
102
}
330
2A
100
AcDbProxyObject
 90
      499
 91
      501
 93
      388
310
4150985CDA58D07406404333333333333E3BF0000000000000FB0107A41107004050150841D405064090741402480A0350
1001
ACAD
1000
AcDbSavedByObjectVersion
1070
     0
  0
ACAD_PROXY_OBJECT
  5
36
102
{ACAD_REACTORS
330
2A
102
}
330
2A
100
AcDbProxyObject
 90
      499
 91
      501
 93
      428
310
42109C9A59DA1D195B90C409028333333333333E3BF0000000000000FB010790141107004050150841D405064090741402480A029950
1001
ACAD
1000
AcDbSavedByObjectVersion
1070
     0
  0
ACAD_PROXY_OBJECT
  5
3A
102
{ACAD_REACTORS
330
2A
102
}
330
2A
100
AcDbProxyObject
 90
      499
 91
      501
 93
      452
310
42D0DBDB1BDC90DA185B99D95104090240C333333333333E3BF0000000000000FB0108901411070040501508421405064090741402480A0350
1001
ACAD
1000
AcDbSavedByObjectVersion
1070
     0
  0
ACAD_PROXY_OBJECT
  5
34
102
{ACAD_REACTORS
330
2A
102
}
330
2A
100
AcDbProxyObject
 90
      499
 91
      501
 93
      500
310
4290DBDB98D95C1D1D585B10940D028333333333333E3BF0000000000000FB0107902409070040501000000000000111010841D405064090740C02480A0340
1001
ACAD
1000
AcDbSavedByObjectVersion
1070
     0
  0
ACAD_PROXY_OBJECT
  5
35
102
{ACAD_REACTORS
330
2A
102
}
330
2A
100
AcDbProxyObject
 90
      499
 91
      501
 93
      412
310
40D11A5B50B409028333333333333E3BF0000000000000FB010790141107004050150841D405064090741402480A02677FFFFFD0
1001
ACAD
1000
AcDbSavedByObjectVersion
1070
     0
  0
ACAD_PROXY_OBJECT
  5
39
102
{ACAD_REACTORS
330
2A
102
}
330
2A
100
AcDbProxyObject
 90
      499
 91
      501
 93
      444
310
42D19858D95C185D1D195C9B90F409028333333333333E3BF0000000000000FB010790141107004050150841D405064090741402480A0350
1001
ACAD
1000
AcDbSavedByObjectVersion
1070
     0
  0
ACAD_PROXY_OBJECT
  5
2B
102
{ACAD_REACTORS
330
2A
102
}
330
2A
100
AcDbProxyObject
 90
      499
 91
      501
 93
      388
310
41119B185D240901404333333333333E3BF0000000000000F9010740A41107004050150841D405064090741402480A1B50
1001
ACAD
1000
AcDbSavedByObjectVersion
1070
     0
  0
ACAD_PROXY_OBJECT
  5
2C
102
{ACAD_REACTORS
330
2A
102
}
330
2A
100
AcDbProxyObject
 90
      499
 91
      501
 93
      476
310
43519B185D15DA5D1A115919D95CD0140901404333333333333E3BF0000000000000F9010740901411070040501600405405064090741402480A1B50
1001
ACAD
1000
AcDbSavedByObjectVersion
1070
     0
  0
ACAD_PROXY_OBJECT
  5
2D
102
{ACAD_REACTORS
330
2A
102
}
330
2A
100
AcDbProxyObject
 90
      499
 91
      501
 93
      412
310
41D1DBDD5C985D5910240902404333333333333E3BF0000000000000F9010740A411070040501641D405064090741402480A1B50
1001
ACAD
1000
AcDbSavedByObjectVersion
1070
     0
  0
ACAD_PROXY_OBJECT
  5
2E
102
{ACAD_REACTORS
330
2A
102
}
330
2A
100
AcDbProxyObject
 90
      499
 91
      501
 93
      500
310
4411DBDD5C985D5915DA5D1A115919D95CD0340902404333333333333E3BF0000000000000F9010740901411070040501600405405064090741402480A1B50
1001
ACAD
1000
AcDbSavedByObjectVersion
1070
     0
  0
ACAD_PROXY_OBJECT
  5
38
102
{ACAD_REACTORS
330
2A
102
}
330
2A
100
AcDbProxyObject
 90
      499
 91
      501
 93
      444
310
42D31A5B995C185D1D195C9B90E409028333333333333E3BF0000000000000FB010790141107004050750841D405064090741402483A0350
1001
ACAD
1000
AcDbSavedByObjectVersion
1070
     0
  0
ACAD_PROXY_OBJECT
  5
33
102
{ACAD_REACTORS
330
2A
102
}
330
2A
100
AcDbProxyObject
 90
      499
 91
      501
 93
      420
310
425499585B1A5CDD1A58D08409028333333333333E3BF0000000000000FB01079019070040501508421405064090741402480A1B40
1001
ACAD
1000
AcDbSavedByObjectVersion
1070
     0
  0
ACAD_PROXY_OBJECT
  5
37
102
{ACAD_REACTORS
330
2A
102
}
330
2A
100
AcDbProxyObject
 90
      499
 91
      501
 93
      412
310
41D51A1A58DAD95B90D409028333333333333E3BF0000000000000FB010790141107004050150C41D405064090741402480A0350
1001
ACAD
1000
AcDbSavedByObjectVersion
1070
     0
  0
XRECORD
  5
1D5
102
{ACAD_REACTORS
330
1CC
102
}
330
1CC
100
AcDbXrecord
 90
        0
  0
XRECORD
  5
1EB
102
{ACAD_REACTORS
330
1CC
102
}
330
1CC
100
AcDbXrecord
1000
DSTYLE
1002
{
1070
   340
340
11
1002
}
  0
XRECORD
  5
1D6
102
{ACAD_REACTORS
330
1CC
102
}
330
1CC
100
AcDbXrecord
  1
{EE088DB6-C05E-9BC0-EAF8-E20C84C50D2E}
  0
XRECORD
  5
1CF
102
{ACAD_REACTORS
330
1CC
102
}
330
1CC
100
AcDbXrecord
  1

  0
XRECORD
  5
1D4
102
{ACAD_REACTORS
330
1CC
102
}
330
1CC
100
AcDbXrecord
 90
        1
  0
XRECORD
  5
1D1
102
{ACAD_REACTORS
330
1CC
102
}
330
1CC
100
AcDbXrecord
340
1A
  0
XRECORD
  5
1D3
102
{ACAD_REACTORS
330
1CC
102
}
330
1CC
100
AcDbXrecord
 90
    10781
  0
XRECORD
  5
1D2
102
{ACAD_REACTORS
330
1CC
102
}
330
1CC
100
AcDbXrecord
340
19
  0
XRECORD
  5
1D8
102
{ACAD_REACTORS
330
1CC
102
}
330
1CC
100
AcDbXrecord
 40
0.0
  0
XRECORD
  5
1DB
102
{ACAD_REACTORS
330
1CC
102
}
330
1CC
100
AcDbXrecord
340
0
  0
XRECORD
  5
1E1
102
{ACAD_REACTORS
330
1CC
102
}
330
1CC
100
AcDbXrecord
 10
0.0
 20
0.0
 30
0.0
  0
XRECORD
  5
1DD
102
{ACAD_REACTORS
330
1CC
102
}
330
1CC
100
AcDbXrecord
 10
0.0
 20
0.0
 30
0.0
  0
XRECORD
  5
1E0
102
{ACAD_REACTORS
330
1CC
102
}
330
1CC
100
AcDbXrecord
 10
0.0
 20
0.0
 30
0.0
  0
XRECORD
  5
1DE
102
{ACAD_REACTORS
330
1CC
102
}
330
1CC
100
AcDbXrecord
 10
0.0
 20
0.0
 30
0.0
  0
XRECORD
  5
1DF
102
{ACAD_REACTORS
330
1CC
102
}
330
1CC
100
AcDbXrecord
 10
0.0
 20
0.0
 30
0.0
  0
XRECORD
  5
1DC
102
{ACAD_REACTORS
330
1CC
102
}
330
1CC
100
AcDbXrecord
 10
0.0
 20
0.0
 30
0.0
  0
XRECORD
  5
1D9
102
{ACAD_REACTORS
330
1CC
102
}
330
1CC
100
AcDbXrecord
340
0
  0
XRECORD
  5
1DA
102
{ACAD_REACTORS
330
1CC
102
}
330
1CC
100
AcDbXrecord
 70
     0
  0
XRECORD
  5
1D0
102
{ACAD_REACTORS
330
1CC
102
}
330
1CC
100
AcDbXrecord
  1

  0
XRECORD
  5
1CD
102
{ACAD_REACTORS
330
1CC
102
}
330
1CC
100
AcDbXrecord
 90
        1
  0
XRECORD
  5
1CE
102
{ACAD_REACTORS
330
1CC
102
}
330
1CC
100
AcDbXrecord
 90
       70
  0
XRECORD
  5
1E4
102
{ACAD_REACTORS
330
1CC
102
}
330
1CC
100
AcDbXrecord
340
0
  0
XRECORD
  5
1EA
102
{ACAD_REACTORS
330
1CC
102
}
330
1CC
100
AcDbXrecord
 10
0.0
 20
0.0
 30
0.0
  0
XRECORD
  5
1E6
102
{ACAD_REACTORS
330
1CC
102
}
330
1CC
100
AcDbXrecord
 10
0.0
 20
0.0
 30
0.0
  0
XRECORD
  5
1E9
102
{ACAD_REACTORS
330
1CC
102
}
330
1CC
100
AcDbXrecord
 10
0.0
 20
0.0
 30
0.0
  0
XRECORD
  5
1E7
102
{ACAD_REACTORS
330
1CC
102
}
330
1CC
100
AcDbXrecord
 10
0.0
 20
0.0
 30
0.0
  0
XRECORD
  5
1E8
102
{ACAD_REACTORS
330
1CC
102
}
330
1CC
100
AcDbXrecord
 10
0.0
 20
0.0
 30
0.0
  0
XRECORD
  5
1E5
102
{ACAD_REACTORS
330
1CC
102
}
330
1CC
100
AcDbXrecord
 10
0.0
 20
0.0
 30
0.0
  0
XRECORD
  5
1E2
102
{ACAD_REACTORS
330
1CC
102
}
330
1CC
100
AcDbXrecord
340
0
  0
XRECORD
  5
1E3
102
{ACAD_REACTORS
330
1CC
102
}
330
1CC
100
AcDbXrecord
 70
     0
  0
XRECORD
  5
1D7
102
{ACAD_REACTORS
330
1CC
102
}
330
1CC
100
AcDbXrecord
  1
{FAEB1C32-E019-11D5-929B-00C0DF256EC4}
  0
DICTIONARYVAR
  5
1EF
102
{ACAD_REACTORS
330
1EC
102
}
330
1EC
100
DictionaryVariables
280
     0
  1
2
  0
DICTIONARYVAR
  5
1F0
102
{ACAD_REACTORS
330
1EC
102
}
330
1EC
100
DictionaryVariables
280
     0
  1
1
  0
DICTIONARY
  5
1F3
330
3D
100
AcDbDictionary
280
     1
  3
ACAD_XREC_ROUNDTRIP
360
1F4
  0
DICTIONARY
  5
1F1
330
3C
100
AcDbDictionary
280
     1
  3
ACAD_XREC_ROUNDTRIP
360
1F2
  0
DICTIONARY
  5
1F5
330
3E
100
AcDbDictionary
280
     1
  3
ACAD_XREC_ROUNDTRIP
360
1F6
  0
XRECORD
  5
1F4
102
{ACAD_REACTORS
330
1F3
102
}
330
1F3
100
AcDbXrecord
102
MATERIAL
148
0.0
149
0.0
149
0.0
 93
        0
 94
      127
282
     0
 72
     1
 77
     1
171
     1
175
     1
179
     1
273
     0
  0
XRECORD
  5
1F2
102
{ACAD_REACTORS
330
1F1
102
}
330
1F1
100
AcDbXrecord
102
MATERIAL
148
0.0
149
0.0
149
0.0
 93
        0
 94
      127
282
     0
 72
     1
 77
     1
171
     1
175
     1
179
     1
273
     0
  0
XRECORD
  5
1F6
102
{ACAD_REACTORS
330
1F5
102
}
330
1F5
100
AcDbXrecord
102
MATERIAL
148
0.0
149
0.0
149
0.0
 93
        0
 94
      127
282
     0
 72
     1
 77
     1
171
     1
175
     1
179
     1
273
     0
  0
ENDSEC
  0
EOF
